/* XPM */
static char *_fb19c8955224f9ed1f52f4a4a96bd6aQM25eDKVcFA6HbIs[] = {
/* columns rows colors chars-per-pixel */
"32 32 97 2 ",
"   c black",
".  c gray2",
"X  c #090909",
"o  c #1F1C0B",
"O  c #1F1C0C",
"+  c #131313",
"@  c gray9",
"#  c #1E1E1E",
"$  c #201D0B",
"%  c #201D0C",
"&  c #201F1E",
"*  c #242112",
"=  c #2B2710",
"-  c #2C2916",
";  c #202020",
":  c #3E3E3A",
">  c #443B18",
",  c #424140",
"<  c gray27",
"1  c #484848",
"2  c gray31",
"3  c #505050",
"4  c #5B5B5B",
"5  c #F67622",
"6  c #F77B23",
"7  c #F77C24",
"8  c #F87A23",
"9  c #F87C24",
"0  c #F88125",
"q  c #F78128",
"w  c #F7852A",
"e  c #F88229",
"r  c #F88629",
"t  c #F5892D",
"y  c #F8882B",
"u  c #F89231",
"i  c #FCA230",
"p  c #FCA732",
"a  c #FDA831",
"s  c #FDAC33",
"d  c #FEAE34",
"f  c #FEB338",
"g  c #FEB73B",
"h  c #FEB73D",
"j  c #FEBA3E",
"k  c #CFBF50",
"l  c #FEB74B",
"z  c #FEB74C",
"x  c #FEB94F",
"c  c #FEBA53",
"v  c #D4C452",
"b  c #DFCD56",
"n  c #E5C24F",
"m  c #E3C952",
"M  c #E2D056",
"N  c #E2D258",
"B  c #EAD75A",
"V  c #EBD85A",
"C  c #EDD95B",
"Z  c #FAD355",
"A  c #FCD355",
"S  c #FCD456",
"D  c #FDDA59",
"F  c #FDDD5B",
"G  c #FEE05B",
"H  c #FEE25D",
"J  c #FDE55F",
"K  c #FDE95F",
"L  c #EDDB6E",
"P  c #FCD668",
"I  c #FDDE6D",
"U  c #FEE761",
"Y  c #FEE267",
"T  c #FBE861",
"R  c #FEE861",
"E  c #FEE96E",
"W  c #FEEA73",
"Q  c #FEEA76",
"!  c #FDEC77",
"~  c #FDE97D",
"^  c #FDE4CA",
"/  c #FEEBCE",
"(  c #EDEBDD",
")  c #FDE5D5",
"_  c #FDE7D9",
"`  c #FEF5DA",
"'  c #EEEEEE",
"]  c #FDECE0",
"[  c #FDEFE5",
"{  c #FEF3E3",
"}  c #FEF4E3",
"|  c #FEF4E4",
" . c #FEFBE7",
".. c #FEF2EA",
"X. c #FEF7EC",
"o. c #FEFCEC",
"O. c #FEFEFD",
/* pixels */
"2 2 3 <                                               X 2 2 3 2 ",
"3 2 < , % % % % % % % % % % % % % % ; ; ; ; ; & $ % % * 1 < 2 3 ",
"2 ,   o T R R R R R R R R R R R R ! O.O.O.O.O.o.K R R N   . 3 2 ",
", : = > Z S S S S S S S S S S S S P _ _ _ _ _ ^ S S S n = - , < ",
"  = R D 5 5 5 5 5 5 5 5 5 5 5 5 5 5 5 5 5 5 5 5 5 5 5 q U B   X ",
"  = R D 7 7 7 7 7 7 7 7 7 7 7 7 7 7 7 7 7 7 7 7 7 6 5 q U B   X ",
"  = R G d d d d d d d d d d d d d d d d d d d d d p 5 q U B   X ",
"  = R G d d d d d s p p g g g g g h c c d d d d d p 5 q U B   X ",
"  = R G d d d d d p 5 w U U U U U Q O.X.d d d d d p 5 q U B   X ",
"  = R G d d d s p i w u U U U U U W  .` c z s d d p 5 q U B   X ",
"  = R G d d d p 5 q R U U U U U U U J E O.} s d d p 5 q U B   X ",
"  = R G d d d p 5 e U U U J A A A S U E O.| s d d p 5 q U B   X ",
"  = R G d d d p 5 e U U U F 5 5 5 r U E O.| s d d p 5 q U B   X ",
"  = R G d d d p 5 e U U U F 6 9 9 y G Y | / s d d p 5 q U B   X ",
"  = R G d d d p 5 e U U U H s d d d d d s s d d d p 5 q U B   X ",
"  = R G d d d p 5 e U U U H d d d d d d d d d d d p 5 q U B   X ",
"  = R G d d d p 5 e U U U H d d d d d d d d d d d p 5 q U B   X ",
"  = R G d d d p 5 e U U U H d d d d g h c x s d d p 5 q U B   X ",
"  = R G d d d p 5 e U U U H d d d g U E O.{ s d d p 5 q U B   X ",
"  = R G d d d p 5 e U U U H f g g j U E O.| s d d p 5 q U B   X ",
"  = R G d d d p 5 e U U U U U U U U U E O.| s d d p 5 q U B   X ",
"  = R G d d d p 6 r D D U U U U U U W ~ ] ^ s d d p 5 q U B   X ",
"  = R G d d d d d p 5 w U U U U U Q O...5 6 d d d p 5 q U B   X ",
"  = R G d d d d d a 6 y D D D D D I [ ) 7 0 d d d p 5 q U B   X ",
"  = R G d d d d d d d p 5 5 5 5 5 5 5 6 d d d d d p 5 q U B   X ",
"  = R G d d d d d d d p 6 8 8 8 8 8 8 9 d d d d d p 5 q U B   X ",
"  = R G d d d d d d d s s s s s s s s s d d d d d p 5 q U B   X ",
"X - b m g g g g g g g g g g g g g g l l l l l l g d q t b k X + ",
"3 ,   O U U U U U U U U U U U U U Q O.O.O.O.O.o.J U U M   . 2 3 ",
"3 < . % V C C C C C C C C C C C C L ' ' ' ' ' ( C C C v . X 2 3 ",
"2 2 3 <                                               X 2 2 3 2 ",
"4 4 4 3 @ @ @ @ @ @ @ @ @ @ @ @ @ @ @ @ @ @ @ @ @ @ @ # 4 4 4 4 "
};
