/* XPM */
static char *cc6415d1c2094e15b964206aa5cb8759n4URCGmC0HitfJq7[] = {
/* columns rows colors chars-per-pixel */
"64 64 89 1 ",
"  c #000000",
". c #2A2610",
"X c #322E13",
"o c #373215",
"O c #383314",
"+ c #3F3A17",
"@ c #3F3A18",
"# c gray17",
"$ c #3F3B21",
"% c #39372B",
"& c #3D3A2C",
"* c #3B3A32",
"= c #3C3C3C",
"- c #6C6329",
"; c #72672B",
": c #746A2C",
"> c #6C6539",
", c #403F40",
"< c #434343",
"1 c #4D4D4D",
"2 c #515151",
"3 c #6D6951",
"4 c #6D6D6D",
"5 c #89752F",
"6 c #8F7830",
"7 c #917F32",
"8 c #F6731E",
"9 c #F77622",
"0 c #F77A23",
"q c #F88426",
"w c #F88827",
"e c #F7892C",
"r c #F88B2C",
"t c #F9902A",
"y c #FB9C2E",
"u c #F89B36",
"i c #FCA02F",
"p c #FCA330",
"a c #FEAE34",
"s c #FAAC3D",
"d c #FEB237",
"f c #FDB73B",
"g c #F9AF42",
"h c #F4B143",
"j c #FAB344",
"k c #FAB947",
"l c #FDB94A",
"z c #FDBA56",
"x c #FAB658",
"c c #FAAA6C",
"v c #FDBF62",
"b c #FBBB77",
"n c #FBC34B",
"m c #FECC4B",
"M c #FBCB52",
"N c #FDCF5F",
"B c #FCD555",
"V c #FEDA56",
"C c #FCDA59",
"Z c #F4E35F",
"A c #FCE55F",
"S c #FDC062",
"D c #FDD37E",
"F c #F5E460",
"G c #FDE761",
"H c #FDE961",
"J c #FDE975",
"K c #FDEA7D",
"L c gray51",
"P c #8E8E8E",
"I c #919191",
"U c #FAB081",
"Y c #FBC09B",
"T c #FBD395",
"R c #FDEB83",
"E c #FDEC85",
"W c #FCF087",
"Q c #FDEE90",
"! c #FED9A1",
"~ c #FDE2AB",
"^ c #FDE8AA",
"/ c #FEF1B4",
"( c #FEF4BA",
") c #FDF4BC",
"_ c #FCD9C2",
"` c #FCDBC6",
"' c #FCF6C0",
"] c #FEFBF5",
"[ c #FEFEFD",
/* pixels */
"IIIIIIIIPLLLLLLLLLLLLLLLLLLLLLLLLLLLLLLLLLLLLLLLLLLLLLLLIIIIIIII",
"12112112=                                               <2121121",
"21221221<                                               <1211211",
"12112112=                                               <2122121",
"1211    *+++++++++++++++++++++++++++&,<<<<<<<<=,$++++@@@    1122",
"2122    OHHHHHHHHHHHHHHHHHHHHHHHHHHH'[[[[[[[[[[[WHHHHHHZ    <211",
"1211    oAGGGGGGGGGGGGGGGGGGGGGGGGGG)[[[[[[[[[[[EGGGGGGZ    <122",
"1211    oAGGGGGGGGGGGGGGGGGGGGGGGGGG)[[[[[[[[[[[EGGGGGGZ    <122",
"1###%;;;6jjjjjjjjjjjjjjjjjjjjjjjjjjjbYYYYYYYYYYYxjjjjjjh5;;;%###",
"<   @FGGM99999999999999999999999999999999999999999999990BGGFX   ",
"<   @FGGM99999999999999999999999999999999999999999999990BGGZX   ",
"1   @FGGM99999999999999999999999999999999999999999999990BGGZX   ",
"<   @FGGBttttttttttttttttttttttttttttttttttttttttttr0990BGGZX   ",
"<   @FGGVaaaaaaaaaaaaaaaaaaaaaaaaaaaaaaaaaaaaaaaaaaa0990BGGZX   ",
"1   @FGGVaaaaaaaaaaaaaaaaaaaaaaaaaaaaaaaaaaaaaaaaaaa0990BGGZX   ",
"<   @FGGVaaaaaaaaaaaaaaaaaaaaaaaaaaaaaaaaaaaaaaaaaaa0990BGGZX   ",
"<   @FGGVaaaaaaaaaaaiwwwsBBBBBBBBBBB[[[[[aaaaaaaaaaa0990BGGZX   ",
"<   @FGGVaaaaaaaaaaay999jGGGAGGGGGGA)[[[[aaaaaaaaaaa0990BGGZX   ",
"<   @FGGVaaaaaaaaaaay999jGGGGGGGGGGG)[[[[aaaaaaaaaaa0990BGGZX   ",
"<   @FGGVaaaaaaaaaaay999jGGGGGGGGGGG)[[[[aaaaaaaaaaa0990BGGZX   ",
"<   @FGGVaaaaaaaiwwwunnnBGGGGGGGGGGGKQQQ^[[[zaaaaaaa0990BGGZX   ",
"<   @FGGVaaaaaaay999uGGGGGGGGGGGGGGGGGGG([[[vaaaaaaa0990BGGZX   ",
"1   @FGGVaaaaaaay999uHGGGGGGGGGGGGGGGGGA([[[Saaaaaaa0990BGGZX   ",
"1   @FGGVaaaaaaay999uHGGGGGGfffffffffGGA([[[Saaaaaaa0990BGGZX   ",
"<   @FGGVaaaaaaay999uHGGGGGGkrrrrrrenGGA([[[Saaaaaaa0990BGGZX   ",
"1   @FGGVaaaaaaay999uHGGGGGGg9999999kGGA([[[Saaaaaaa0990BGGZX   ",
"<   @FGGVaaaaaaay999uHGGGGGGg9999999kGGA([[[Saaaaaaa0990BGGZX   ",
"<   @FGGVaaaaaaay999uHGGGGGGj9999999kAAA/][]Saaaaaaa0990BGGZX   ",
"1   @FGGVaaaaaaay999uHGGGGGGnpppppppaffflzzzdaaaaaaa0990BGGZX   ",
"<   @FGGVaaaaaaay999uHGGGGGGmaaaaaaaaaaaaaaaaaaaaaaa0990BGGZX   ",
"<   @FGGVaaaaaaay999uHGGGGGGmaaaaaaaaaaaaaaaaaaaaaaa0990BGGZX   ",
"1   @FGGVaaaaaaay999uHGGGGGGmaaaaaaaaaaaaaaaaaaaaaaa0990BGGZX   ",
"<   @FGGVaaaaaaay999uHGGGGGGmaaaaaaaaaaaaaaaaaaaaaaa0990BGGZX   ",
"<   @FGGVaaaaaaay999uHGGGGGGmaaaaaaaaaaaaaaaaaaaaaaa0990BGGZX   ",
"1   @FGGVaaaaaaay999uHGGGGGGmaaaaaaaaaaaaaaaaaaaaaaa0990BGGZX   ",
"<   @FGGVaaaaaaay999uHGGGGGGmaaaaaaaddddfjjjaaaaaaaa0990BGGZX   ",
"<   @FGGVaaaaaaay999uHGGGGGGmaaaaaaamAAA/]]]vaaaaaaa0990BGGZX   ",
"1   @FGGVaaaaaaay999uHGGGGGGmaaaaaaamGGA([[[Saaaaaaa0990BGGZX   ",
"<   @FGGVaaaaaaay999uHGGGGGGmaaaaaaamGGA([[[Saaaaaaa0990BGGZX   ",
"<   @FGGVaaaaaaay999uHGGGGGGmdddddddBGGA([[[Saaaaaaa0990BGGZX   ",
"1   @FGGVaaaaaaay999uHGGGGGGfffffffffGGA([[[Saaaaaaa0990BGGZX   ",
"<   @FGGVaaaaaaay999uHGGGGGGGGGGGGGGGGGA([[[Saaaaaaa0990BGGZX   ",
"<   @FGGVaaaaaaay999uGGGGGGGGGGGGGGGGGGG([[[Saaaaaaa0990BGGZX   ",
"1   @FGGVaaaaaaaiqqquMMMCGGGGGGGGGGGJRRR~```zaaaaaaa0990BGGZX   ",
"<   @FGGVaaaaaaaaaaay999jGGGGGGGGGGG)[[[U888yaaaaaaa0990BGGZX   ",
"<   @FGGVaaaaaaaaaaay999jGGGGGGGGGGG)[[[U999iaaaaaaa0990BGGZX   ",
"<   @FGGVaaaaaaaaaaay999jAGGGGGGGGGA)[[[U999iaaaaaaa0990BGGZX   ",
"<   @FGGVaaaaaaaaaaayqqqsMMMMMMMMMMMT___cqqqpaaaaaaa0990BGGZX   ",
"<   @FGGVaaaaaaaaaaaaaaar999999999998888taaaaaaaaaaa0990BGGZX   ",
"<   @FGGVaaaaaaaaaaaaaaat999999999999999taaaaaaaaaaa0990BGGZX   ",
"<   @FGGVaaaaaaaaaaaaaaat999999999999999taaaaaaaaaaa0990BGGZX   ",
"<   @FGGVaaaaaaaaaaaaaaa                 aaaaaaaaaaa0990BGGZX   ",
"<   @FGGVaaaaaaaaaaaaaaaaaaaaaaaaaaaaaaaaaaaaaaaaaaa0990BGGZX   ",
"<   @FGGVaaaaaaaaaaaaaaaaaaaaaaaaaaaaaaaaaaaaaaaaaaa0990BGGZX   ",
"1   +FHHVaaaaaaaaaaaaaaaaaaaaaaaaaaaaaaaaaaaaaaaaaaa0990BHHZX   ",
"1###&:::7mmmmmmmmmmmmmmmmmmmmmmmmmmmD!!!!!!!!!!!Nmmmjjjh5:::%###",
"1211=   oAGGGGGGGGGGGGGGGGGGGGGGGGGG)[[[[[[[[[[[EGGGGGGZ.   <122",
"2122=   oAGGGGGGGGGGGGGGGGGGGGGGGGGG)[[[[[[[[[[[EGGGGGGZ.   <211",
"1211=   oFHHHHHHHHHHHHHHHHHHHHHHHHHH)[[[[[[[[[[[EHHHHHHZ.   <121",
"12111   %---------------------------344444444444>-------    1122",
"2122122                                                 <1211211",
"12112112=                                               <2122122",
"12112112=                                               <2121121",
"IPIPPIPPPLLLLLLLLLLLLLLLLLLLLLLLLLLLLLLLLLLLLLLLLLLLLLLLPPIPPIPP"
};
