/* XPM */
static char *_f4c00f67e504fbfa72c0031d050e1edLQtKPOvTMmbEc24h[] = {
/* columns rows colors chars-per-pixel */
"48 32 7 1 ",
"  c None",
". c black",
"X c #130D02",
"o c #DFC29C",
"O c #E9D3AE",
"+ c #ECDCC0",
"@ c #F4ECDE",
/* pixels */
"                                                ",
"                                                ",
"                                                ",
"                                                ",
"                               XXXXX            ",
"                              XOOOOOX           ",
"                             XOOOOOOOX          ",
"                             XOOOOO.OX          ",
"                            XOOOOXOOOOXX..      ",
"                            XOXOOOXOOOOO..      ",
"                            XOXOOOXOOOOOOX      ",
"                           XOOOXOOXOOOOOX       ",
"                         XXOOOOXOOXXXXXX        ",
"                   XXXXXXOOOOOOOXXX             ",
"       XXXXXXXXXXXXOOOOOOOOOOOO++X              ",
"    XXXOOOOOOOOOOOOOOOOOOOOOO++O+X              ",
"  XX+OOOOOOOOOOOOOOOOO++OOO+OO+++X              ",
" X+++++OXXOOOOOOO++O++O++OOO+++++X              ",
"X@@+@X@X XOO++O+++O+O+++O++O++++X               ",
" XX@X X  X+++O++O+O++++++O++++++X               ",
"   X     X+O+++++++++++++++++++X                ",
"        X++++X+++++@@@@X++++++XX                ",
"        X++++XX@@@@@XXXX++++XXoX                ",
"        X+++XooXXXXX   X+++XoooX                ",
"       X++XXXoX         X++XXooX                ",
"       X+X  XoX         X+X  XoX                ",
"       X+X  XoX         X+X  XoX                ",
"       X+X  XoX         X+X  XoX                ",
"       X+X  XoX         X+X  XoX                ",
"       X+X  XoX         X+X  XoX                ",
"       X++X XooX        X++X XooX               ",
"        XXX  XXX         XXX  XXX               "
};
