/* XPM */
static char *_453588649d2492184704efc1332991dk78MYzhLfOXFJJy3[] = {
/* columns rows colors chars-per-pixel */
"64 64 129 2 ",
"   c #35271D",
".  c #35281D",
"X  c #3B2C1F",
"o  c #272424",
"O  c #2D2826",
"+  c #2B2728",
"@  c #2E2B2B",
"#  c #322A25",
"$  c #3B2E23",
"%  c #332D2C",
"&  c #392F29",
"*  c #3B3027",
"=  c #36312D",
"-  c #3A312B",
";  c #332F30",
":  c #353233",
">  c #393536",
",  c #3F3936",
"<  c #3A3739",
"1  c #3D3A3C",
"2  c #463526",
"3  c #483627",
"4  c #43362B",
"5  c #493728",
"6  c #46382C",
"7  c #4C3A2B",
"8  c #523E2D",
"9  c #403732",
"0  c #443A33",
"q  c #4C3D31",
"w  c #413D3E",
"e  c #503F30",
"r  c #54402F",
"t  c #4E4034",
"y  c #47403F",
"u  c #4A423E",
"i  c #544232",
"p  c #5A4533",
"a  c #5E4935",
"s  c #54453A",
"d  c #584738",
"f  c #5C4A3B",
"g  c #614B36",
"h  c #654E3A",
"j  c #67503A",
"k  c #6B543D",
"l  c #423E41",
"z  c #464244",
"x  c #494446",
"c  c #4D494D",
"v  c #524C4E",
"b  c #584F4E",
"n  c #5A504F",
"m  c #4F4B50",
"M  c #524E52",
"N  c #565155",
"B  c #5B5454",
"V  c #575358",
"C  c #5A565B",
"Z  c #5E585B",
"A  c #6E5640",
"S  c #705741",
"D  c #745A43",
"F  c #795E46",
"G  c #605756",
"H  c #615856",
"J  c #655B5B",
"K  c #695F5D",
"L  c #776244",
"P  c #7A6047",
"I  c #7D6249",
"U  c #7F6A49",
"Y  c #5F5B61",
"T  c #615D63",
"R  c #646166",
"E  c #666269",
"W  c #6A666B",
"Q  c #6C686F",
"!  c #6F6B72",
"~  c #726E74",
"^  c #77737A",
"/  c #79757B",
"(  c #7C797E",
")  c #82654C",
"_  c #85694E",
"`  c #87734E",
"'  c #89724F",
"]  c #896F50",
"[  c #8D7452",
"{  c #8D7852",
"}  c #927755",
"|  c #927A55",
" . c #977F58",
".. c #978158",
"X. c #9B845B",
"o. c #9F895E",
"O. c #A0865F",
"+. c #A28C5F",
"@. c #A58C61",
"#. c #A79161",
"$. c #A89262",
"%. c #AA9663",
"&. c #AB9763",
"*. c #AA9065",
"=. c #AC9167",
"-. c #AA9764",
";. c #AC9665",
":. c #AC9865",
">. c #AF9469",
",. c #B09C67",
"<. c #B19669",
"1. c #B3986B",
"2. c #B4996B",
"3. c #B19C69",
"4. c #B49F6A",
"5. c #B69B6D",
"6. c #B6A06B",
"7. c #B7A16D",
"8. c #B8A26D",
"9. c #BDA571",
"0. c #BFA872",
"q. c #C1AA74",
"w. c #C7AE76",
"e. c #C9AE79",
"r. c #CFB57C",
"t. c #D1B67E",
"y. c #7D7A80",
"u. c #827F84",
"i. c #878489",
/* pixels */
"$ * $ * $ $ $ $ $ $ * $ * $ & $ $ $ $ $ $ * $ * $ * $ $ $ $ $ $ $ $ * $ * $ $ $ $ $ $ $ $ * $ * $ $ $ $ $ $ $ $ * $ - $ $ $ $ $ ",
"a p p p p r 7 h p p p p p p 5 p g p p p p p i 7 h p p p p p a X $ p g p p p p p p 3 j p p p p p p 7 r g p p p p p p 3 h a p p p ",
"_ ) ) ) ) S g [ ) ) ) ) ) ) p I _ ) ) ) ) ) D a [ ) ) ) ) ) ) 2 3 D ] ) ) ) ) ) F i } ) ) ) ) ) ) h S ] ) ) ) ) ) I i [ _ ) ) ) ",
" .} } } } I j +.} } } } } } a `  .} } } } } ) g o.} } } } } | 3 3 U X.} } } } } _ i +.} } } } } } k L X.} } } } } { p X.| } } } ",
"#.+.+.+.+.{ L 3.+.+.+.+.+.+.S X.$.@.+.+.+.+.| D 3.+.+.+.@.@.@.p p | ;.+.+.+.+.+...j 3.+.+.+.+.+.+.U ' -.@.@.@.+.+.o.k ;.@.+.+.+.",
"3.-.-.-.%.X.] q.-.-.-.-.-.%.I *.4.-.-.-.-.%.X._ q.-.-.-.-.-.:.j j @.8.%.-.-.-.%.+.F w.:.-.-.-.-.-.{ X.8.-.-.-.-.%.#.P 9.:.-.-.-.",
"0.7.7.4.,.o.[ r.8.8.7.7.3.3.) 5.q.7.7.7.4.3.+._ t.8.8.7.7.3.4.j j =.w.7.7.7.6.3.#.P t.8.8.7.8.3.3.} O.w.7.7.7.7.3.:.I e.9.7.7.3.",
"5.5.1.*.+.[ P 5.5.<.5.>.@.o.S X.5.<.1.2.*.+.{ D 5.5.<.5.<.@.o.p p | 5.5.<.5.=.+.| j 5.5.<.5.<.@.o.I [ 5.5.<.5.=.@.X.k =.5.5.<.@.",
") ) F D k p a _ ) D ) D S h 8 S _ F P I S k p p _ ) D I D D j $ 3 A _ I F I D S a 8 _ ) D I D D j i j _ I F I D S g 8 ) ) ) D D ",
"F D D D k p p ) D D D D S h 7 S F D D D D k p 8 _ D D D D D j $ 3 S I D D D D S a 5 _ D D D D D j r h I D D D D S g 7 I D D D D ",
"F D D D k p i ) D D D D S h r D P D D D D k a p _ D D D D D j $ 3 S I D D D D S a 8 _ D D D D D j p j I D D D D S g r I D D D D ",
"D D D D k p p ) D D D D D j 7 S F D D D D k a p ) D D D D D j $ 3 k I D D D D S a 5 ) D D D D D j i j P D D D D S g 5 S D D D D ",
"F D D D k p p D D D D D S h r j D D D D D k p 7 D D D D D D j X 3 h D D D D D S a 8 D D D D D D j r p D D D D D S g 8 ) D D D D ",
"F D D D k p 8 D D D D D S h 7 h D D D D D k a i D D D D D D j $ 3 h D D D D D S a 5 D D D D D D j p g D D D D D S g 5 I D D D D ",
"h D D D k p a ) D D D D S h 8 D F D D D D k p 8 ) D D D D D j $ 3 A I D D D D S g r _ D D D D D j p j I D D D D S g 8 S D D D j ",
"z s k D k p i ) D D D D S h 7 S P D D D D k a p _ D D D D D j $ 3 A I D D D D S a 5 _ D D D D D j 8 h I D D D D S g r I D D j 0 ",
"m w s k k p 8 F D D D D S h 5 j D D D D D k p 8 D D D D D D j $ 3 j D D D D D S a 5 F D D D D D j 8 p D D D D D S g 5 S D j 0 x ",
"! V w t h p i ) D D D D D h 5 A F D D D D k p 8 ) D D D D D j $ 3 k I D D D D S a 5 ) D D D D D j 8 g I D D D D S g 5 k j 9 C ^ ",
"Y c : : x v v B n n B J B B v G B G J G B J B B K J J J J J B > y n H J J J J J B V K J B H J B B v B H B H n n n v c b z @ M Q ",
"x l % @ < x z z z z z x x x x x x x x x x x x x x x x x x x 1 @ : l x x x x x x x x x x x x x x x x x x x x z z z z z z > + x c ",
"l w ; @ : w w w z W V w w w w w w V T c w w w w w z W C z w : + @ < w w v R M w w w w w w T C x w w w w w c R V w w w 1 : + x c ",
"z w ; @ : w w w x ( Y < w w w w w R ~ M < w w w w z y.T w 1 : + @ < w w V ^ V < w w w w w ~ E z < w w w w M ^ C < w w w : + x M ",
"z w ; @ : > > > < c l : > > > > > x x < : > > > > < c l : > : + @ : > > l c 1 : > > > > > x z : : > > > > 1 c w : > > > : o x M ",
"C x ; + @ @ @ @ @ @ @ @ @ @ @ @ @ @ @ @ @ @ @ @ @ @ @ @ @ @ @ + @ @ @ @ @ @ @ @ @ @ @ @ @ @ @ @ @ @ @ @ @ @ @ @ @ @ @ @ @ o x R ",
"Q c % O - & # - - - - - - - # & - - - - - - & # - - - - - - - O # & - - - - - - & # - - - - - - - # # - - - - - - & # & - + l ~ ",
"M < % q h p 7 j j j j j j h 7 p j j j j j h p 7 h j j j j j h $ 3 g j j j j j h a 3 h j j j j j h r r j j j j j h g 5 g h - % M ",
": % q k k p 8 D D D D D D h 5 j D D D D D k p 8 D D D D D D j $ 3 S I D D D D S a 5 D D D D D D j 8 p D D D D D S g 5 S D j - % ",
"& i k D k p i ) D D D D S h 7 S F D D D D k a p ) D D D D D j $ 3 S I D D D D S a 8 _ D D D D D j 8 g I D D D D S g 7 I D D j 4 ",
"i k D D k p i ) D D D D S h 8 D P D D D D k a p ) D D D D D j X 3 S I D D D D S a 5 ) D D D D D j 8 h I D D D D S g r ) D D D j ",
"A D D D k p a ) D D D D S h 5 S F D D D D k p 7 S D D D D D j X 3 A I D D D D S a 5 D D D D D D j i j I D D D D S g r ) D D D D ",
"D D D D k p i ) D D D D S h 5 S F D D D D k a p ) S S D D D j $ 3 h D D D S S A a 8 _ D D D D D j 8 g I D D D D S g 5 S D D D D ",
"F D D D k p p D D D D D S h 8 j D D D D D k s : , > , A S D j $ 3 k I D S h > > : > S D D D D D j i g D D D D D S g 8 I D D D D ",
"F D D D k p i ) D D D D S h 7 h D D D D D h > < : : < , A D j $ 3 h D D f > < : : < , A D D D D j 8 p D D D D D S g 5 I D D D D ",
"F D D D k p p D D D D D S h 8 S F D D D S f + % c x + O j D j $ 3 h D D d + ; c x + @ A D D D D j i j I D D D D S g 8 ) D D D D ",
"F D D D k p a ) D D D D D h r D P D D D D f + < E R % + j D j $ 3 k I D d + 1 E Y @ O A D D D D j p g D D D D D S g 5 S D D D D ",
"D D D D k p r F D D D D D h 7 S P D D D f w c < C V : > - j j $ 3 j D g w c < C M : > 4 A D D D j r p D D D D D S g 5 F D D D D ",
"D D D D k p p I D D D D D h 7 k D S S h u M x % x x @ x > 9 a $ 3 j h u M x % x l @ x > 0 k D D j i g F D D D D S g 8 D D D D D ",
"F D D D k p a _ D D D D D h 7 k F D D d x C @ @ @ @ @ : x : s $ 3 j s x V @ @ @ @ % : x : j D D j p g D D D D D S g r S D D D D ",
"F D D D k p i F D D D D S h 5 S F D D f z c + + o o + + x > p $ 3 h s l x + + o + + + c > j D D j p g D D D D D S g 7 F D D D D ",
"D D D D k p i I D D D D S h 7 k D D D f 1 x + $ 4 4 4 O V < p $ 3 h s 1 l O 4 4 4 # + V < j D D j r a D D D D D S g 5 D D D D D ",
"D D D D k p a ) D D D D S h 8 h D D D f 1 x # 7 j j h % T 1 p $ 3 j f 1 x - j j a 2 % E < j D D j 8 a D D D D D S g 7 A D D D D ",
"F D D D k p p ) D D D D S h 5 j D D D d < x , 6 f h f x Y < s $ 3 S f < x w h f i - x Y : j D D j 8 g F D D D D S g r D D D D D ",
"A D D D k p r I D D D D D j 7 k F D D f - 1 x 1 1 x x Y x - p $ 3 S h - 1 x 1 1 x x T x - j S D j r a D D D D D S g 8 P D D D S ",
"f A S D k p r F D D D D D j r k D D D k i = 1 x x C C x - a h $ 3 k D s = 1 x x C C x - f S D D j p j P D D D D S g 5 A D D S f ",
"x t j S k p p ) D D D D D h 8 S F D D D k i O + O O O # a S j $ 3 h D k i O O O O o # g S D D D j i g D D D D D S g 5 A D S f 0 ",
"V l q j k p 8 D D D D D D h 5 h D D D D D k p 5 g h h h S D j $ 3 A I D A h h h a 3 h S D D D D j 8 p D D D D D S g 5 A S g < c ",
"~ C w q g p e D D D D D D j 7 h D D D D D A p 7 D D D D D D j $ 2 h D D D D D A f 7 D D D D D D j s f D D D D D A f i A g : Y y.",
"C x : % z v c v v v M Z M C v V N V Z V V Z Z C Z Z Z Z Z Z M > z v V Z Z Z Z Z Z C Z Z M Z Z N V N N V N V v v v v v v w + c R ",
"w w ; @ > w w w w w w w w w w w w w w w w w w w w w l w w w > + % < w w w w w w w w w w w w w w w w w w w w w w w w w w : o x x ",
"x w ; @ : 1 w w x i.W l w w w w w W / C w w w w w z i.W x w : + @ < w w C u.T w w w w w w ( ! c w w w w w N u.R w w w 1 : + x M ",
"x w ; @ : w w w z ! V : 1 w w w w Z R x > w w w w l ! V < < : + @ < w w M W c : 1 w w w w E C 1 < w w w w c W M > w w 1 : + x M ",
"x w ; @ : : : : : l < : : : : : : < 1 > : : : : : : l < : : : + @ : : : < w > : : : : : : 1 < : : : : : : < w < : : : : : o x M ",
"Q c ; + + + + + + + + + + + + + + + + + + + + + + + + + + + + + + + + + + + + + + + + + + + + + + + + + + + + + + + + + + o x ~ ",
"T z @ - i 7 4 i i i i i i i 4 7 i i i i i i 7 4 i i i i i i i $ * 7 i i i i i i q * i i i i i i i 6 6 i i i i i i i * e i + : R ",
"z : - p j p 7 k k k k k k h 5 a k k k k k j p 7 k k k k k k h $ 3 g k k k k k j a 2 k k k k k k h 8 i k k k k k j a 5 j k t % l ",
"% - p A k p r D D D D D D h 5 h D D D D D k p 8 S D D D D D j $ 3 h D D D D D S a 5 D D D D D D j 8 p S D D D D S g 7 A D k q % ",
"- i k D k p p D D D D D k h 7 h D D S S S j p 8 S D D D D k h X 3 h S D D D S j a 7 D D D D D k h r a D D D D S k g r S D k j q ",
"g j S D k p r D S k D S k h 7 h D A A D S j p 8 S S k S D k h $ 3 h D S k D S j g 7 D S k S D k h p g D S k D D j g 7 A D k D k ",
"S A S D k p r D S j D D k h 7 h D k k D S j p r D D j S S k h $ 3 h D S k D S j a 7 D D j S D k j i a D S k D S k g 7 A D k S D ",
"D j k S j p i D D S S k j g 8 j D S S S k h p 8 D D S D S j h $ 3 h D S S S k h a r D D S S S j h 8 p D S S S k h g 8 S D g S S ",
"D j j k h p 8 D S g A j A h 5 h D j j k j k a r D D g k j k j $ 3 h D k j k j k a 8 D S h k h k j 8 p D k h k j k g 5 A D g k j ",
"S j g j k p i S A g h S h g 5 g S j g j j g p 7 S S g g k h h $ 3 g S j g h k g a 5 S S h g A h g 8 p S k g h A g g 5 k S g g k ",
"p p p p p 8 3 p p p p p p p 3 8 p p p p p p r 3 p p p p p p p X 2 r p p p p p p r 2 p p p p p p p 7 7 p p p p p p p 2 i p p p p ",
".   .                 .   .                 .   .   .             .   .   .             .       .             .                 "
};
