/* XPM */
static char *_dba1eeee4ef431b9f8742d7572161702z6sBfl4iLH1DFDi[] = {
/* columns rows colors chars-per-pixel */
"32 32 95 2 ",
"   c #35271D",
".  c #35281D",
"X  c #3B2C1F",
"o  c #272425",
"O  c #292626",
"+  c #2D2827",
"@  c #2E2B2B",
"#  c #362B23",
"$  c #3D2D20",
"%  c #322E2E",
"&  c #3E3126",
"*  c #36302D",
"=  c #3B312B",
"-  c #363234",
";  c #393434",
":  c #3A3739",
">  c #3D3A3C",
",  c #473627",
"<  c #42362D",
"1  c #493728",
"2  c #46382C",
"3  c #4C3A2B",
"4  c #523F2E",
"5  c #403732",
"6  c #463B34",
"7  c #4B3C30",
"8  c #413C3D",
"9  c #503F30",
"0  c #54412F",
"q  c #4E4135",
"w  c #544232",
"e  c #5B4633",
"r  c #5D4937",
"t  c #5B4A3B",
"y  c #614B36",
"u  c #654E39",
"i  c #67503A",
"p  c #6C543E",
"a  c #423E41",
"s  c #464244",
"d  c #484446",
"f  c #494548",
"g  c #4D494D",
"h  c #524C4E",
"j  c #514D52",
"k  c #555053",
"l  c #595356",
"z  c #575358",
"x  c #5B565A",
"c  c #5E585B",
"v  c #6E5640",
"b  c #705741",
"n  c #745A43",
"m  c #795E46",
"M  c #7D6249",
"N  c #7F6B49",
"B  c #5F5B62",
"V  c #615D63",
"C  c #646066",
"Z  c #6A676B",
"A  c #736F75",
"S  c #77737A",
"D  c #78747A",
"F  c #7C797E",
"G  c #82664C",
"H  c #84674D",
"J  c #846A4D",
"K  c #87734E",
"L  c #8A7451",
"P  c #8D7552",
"I  c #927755",
"U  c #927855",
"Y  c #947A57",
"T  c #998359",
"R  c #998459",
"E  c #9C815C",
"W  c #9D875D",
"Q  c #A0895D",
"!  c #A48A61",
"~  c #A58C62",
"^  c #A79261",
"/  c #AB9763",
"(  c #AA9065",
")  c #AE9367",
"_  c #AA9764",
"`  c #AC9865",
"'  c #AF9469",
"]  c #B09569",
"[  c #B4996B",
"{  c #B69B6D",
"}  c #B8A26D",
"|  c #BDA471",
" . c #C1AA74",
".. c #817E84",
"X. c #868388",
/* pixels */
"e e 0 u e e e e e e e 3 e e e X e e e e , e e e 3 y e e e u e e ",
"U I M Q I I U K I I I y U I I , N I I I 0 U I I p T I I P R I I ",
"_ _ T  ._ _ / ( _ _ / J _ _ _ i ! / _ / m ` _ _ P } _ _ ^ | _ _ ",
"{ ( L { ] ' W E ] [ Q n { { ~ e Y { { Q i { { ~ M { ] ) T ) { ~ ",
"n n e H n n u b n n p 4 n n n $ b n n b 3 n n n 0 M n n y M n n ",
"n n e G n n u v n n p e n n n $ p n n b 3 n n n w M n n y b n n ",
"n n e n n n u u n n p w n n n $ u n n b 1 n n n e n n n y M n n ",
"w n e H n n u b n n p e n n n $ v n n b 3 n n n 4 M n n y M n 6 ",
"z q e G n n u v n n p 4 n n n $ p n n b 1 n n n 4 M n n y p 5 D ",
"a @ d s s d d d d d f f f f f @ a f d f f f d d d d d s s s O g ",
"8 @ 8 8 F > 8 8 C j 8 8 s V > O : 8 S > 8 8 A s 8 8 j x 8 8 O j ",
"d O @ @ @ @ @ @ @ @ @ @ @ @ @ O @ @ @ @ @ @ @ @ @ @ @ @ @ @ o C ",
": 7 e i i i u e i i u 3 i i i $ y i i u , i i i 0 i i i y y = j ",
"w n e H n n u b n n p e n n n $ b n n b 4 n n n 4 M n n y M n < ",
"n n e H n n u b n n p 3 n n n $ v n n b 1 n n n w M n n y G n n ",
"n n e n n n u i n n p ; ; v n $ p n u ; ; n n n w n n n y M n n ",
"n n e n n n u b n n t % f + n $ u n O g O v n n w M n n y G n n ",
"n n e m n n u b n n 8 : z ; i $ i y g x - 5 n n 0 n n n y m n n ",
"n n e H n n u p n t x @ @ - - $ i d @ @ % f i n e n n n y b n n ",
"n n e M n n u p n t d # < + : $ u > + < # z i n 0 n n n y n n n ",
"n n e H n n u i n t d 2 u d : $ b : 8 t = B i n 4 m n n y n n n ",
"v n e m n n u p n p * d x d r $ p w > f x = b n e M n n y v n t ",
"a i e n n n u u n n p 3 u u n $ p n u u , b n n 4 n n n y v y g ",
"d % h h h c x l l l c x c c c ; h c c c x c c k k l l h h h O C ",
"8 @ 8 8 X.a 8 8 Z x 8 8 s Z 8 O : 8 ..8 8 8 F g 8 8 k C 8 > O j ",
"8 @ - - a - - - > ; - - ; : - O - - 8 - - - > - - - : : - - o j ",
"s = 3 w w w w 3 w w w < w w w # 3 w w w & w w w 2 w w w w 9 O C ",
"= v e n n n u u n n p 4 n n n $ u n n b 1 n n n 4 n n n y v p % ",
"i n e n i b u u v n i 4 b b p $ u b n i 3 b b p e n p b y v p p ",
"i b e n b p y i b b u 4 n b i $ u b b u 4 n b i 4 n b p y b y b ",
"i i e b y v y y i i y 3 v y u $ y i u y 1 b y u 4 b y v y p y p ",
"          . .                   . . .                 .         "
};
