/* XPM */
static char *_3fbfcf71ab34abd8684e1b8c2bfe956Okp7DNoya66BZ6ef[] = {
/* columns rows colors chars-per-pixel */
"96 96 6 1 ",
"  c None",
". c black",
"X c #423934",
"o c #5A4E44",
"O c #796755",
"+ c #A08662",
/* pixels */
"XXXXXX++++++++++++++++++++++++++++++++++++++++++++++++++++++++++++++++++++++++++++++++++++XXXXXX",
"XXXXXX++++++++++++++++++++++++++++++++++++++++++++++++++++++++++++++++++++++++++++++++++++XXXXXX",
"XXXXXX++++++++++++++++++++++++++++++++++++++++++++++++++++++++++++++++++++++++++++++++++++XXXXXX",
"XXXooo++++++++++++++++++++++++++++++++++++++++++++++++++++++++++++++++++++++++++++++++++++oooXXX",
"XXXooo++++++++++++++++++++++++++++++++++++++++++++++++++++++++++++++++++++++++++++++++++++oooXXX",
"XXXooo++++++++++++++++++++++++++++++++++++++++++++++++++++++++++++++++++++++++++++++++++++oooXXX",
"XXXoooOOO++++++++++++++++++++++++++++++++++++++++++++++++++++++++++++++++++++++++++++++OOOoooXXX",
"XXXoooOOO++++++++++++++++++++++++++++++++++++++++++++++++++++++++++++++++++++++++++++++OOOoooXXX",
"XXXoooOOO++++++++++++++++++++++++++++++++++++++++++++++++++++++++++++++++++++++++++++++OOOoooXXX",
"XXXoooOOO++++++++++++++++++++++++++++++++++++++++++++++++++++++++++++++++++++++++++++++OOOoooXXX",
"XXXoooOOO++++++++++++++++++++++++++++++++++++++++++++++++++++++++++++++++++++++++++++++OOOoooXXX",
"XXXoooOOO++++++++++++++++++++++++++++++++++++++++++++++++++++++++++++++++++++++++++++++OOOoooXXX",
"XXXoooOOO++++++++++++++++++++++++++++++++++++++++++++++++++++++++++++++++++++++++++++++OOOoooXXX",
"XXXoooOOO++++++++++++++++++++++++++++++++++++++++++++++++++++++++++++++++++++++++++++++OOOoooXXX",
"XXXoooOOO++++++++++++++++++++++++++++++++++++++++++++++++++++++++++++++++++++++++++++++OOOoooXXX",
"XXXXXXooo++++++++++++++++++++++++++++++++++++++++++++++++++++++++++++++++++++++++++++++oooXXXXXX",
"XXXXXXooo++++++++++++++++++++++++++++++++++++++++++++++++++++++++++++++++++++++++++++++oooXXXXXX",
"XXXXXXooo++++++++++++++++++++++++++++++++++++++++++++++++++++++++++++++++++++++++++++++oooXXXXXX",
"...XXXXXX++++++++++++++++++++++++++++++++++++++++++++++++++++++++++++++++++++++++++++++XXXXXX...",
"...XXXXXX++++++++++++++++++++++++++++++++++++++++++++++++++++++++++++++++++++++++++++++XXXXXX...",
"...XXXXXX++++++++++++++++++++++++++++++++++++++++++++++++++++++++++++++++++++++++++++++XXXXXX...",
"XXXXXXOOO+++++++++++++++++++++++++++++++++++++++++++++++++++++++++++++++++++++++++++++++++XXXXXX",
"XXXXXXOOO+++++++++++++++++++++++++++++++++++++++++++++++++++++++++++++++++++++++++++++++++XXXXXX",
"XXXXXXOOO+++++++++++++++++++++++++++++++++++++++++++++++++++++++++++++++++++++++++++++++++XXXXXX",
"XXXOOO++++++++++++++++++++++++++++++++++++++++++++++++++++++++++++++++++++++++++++++++++++OOOXXX",
"XXXOOO++++++++++++++++++++++++++++++++++++++++++++++++++++++++++++++++++++++++++++++++++++OOOXXX",
"XXXOOO++++++++++++++++++++++++++++++++++++++++++++++++++++++++++++++++++++++++++++++++++++OOOXXX",
"XXXOOO++++++++++++++++++++++++++++++++++++++++++++++++++++++++++++++++++++++++++++++++++++OOOXXX",
"XXXOOO++++++++++++++++++++++++++++++++++++++++++++++++++++++++++++++++++++++++++++++++++++OOOXXX",
"XXXOOO++++++++++++++++++++++++++++++++++++++++++++++++++++++++++++++++++++++++++++++++++++OOOXXX",
"XXXooo+++++++++++++++++++++++++++++++++++++++++++++++++++++++++++++++++++++++++++++++++OOOoooXXX",
"XXXooo+++++++++++++++++++++++++++++++++++++++++++++++++++++++++++++++++++++++++++++++++OOOoooXXX",
"XXXooo+++++++++++++++++++++++++++++++++++++++++++++++++++++++++++++++++++++++++++++++++OOOoooXXX",
"XXXooo+++++++++++++++++++++++++++++++++++++++++++++++++++++++++++++++++++++++++++++++++OOOoooXXX",
"XXXooo+++++++++++++++++++++++++++++++++++++++++++++++++++++++++++++++++++++++++++++++++OOOoooXXX",
"XXXooo+++++++++++++++++++++++++++++++++++++++++++++++++++++++++++++++++++++++++++++++++OOOoooXXX",
"XXXoooOOO++++++++++++++++++++++++++++++++++++++++++++++++++++++++++++++++++++++++++++++OOOoooXXX",
"XXXoooOOO++++++++++++++++++++++++++++++++++++++++++++++++++++++++++++++++++++++++++++++OOOoooXXX",
"XXXoooOOO++++++++++++++++++++++++++++++++++++++++++++++++++++++++++++++++++++++++++++++OOOoooXXX",
"XXXoooOOO++++++++++++++++++++++++++++++++++++++++++++++++++++++++++++++++++++++++++++++OOOoooXXX",
"XXXoooOOO++++++++++++++++++++++++++++++++++++++++++++++++++++++++++++++++++++++++++++++OOOoooXXX",
"XXXoooOOO++++++++++++++++++++++++++++++++++++++++++++++++++++++++++++++++++++++++++++++OOOoooXXX",
"XXXXXXooo++++++++++++++++++++++++++++++++++++++++++++++++++++++++++++++++++++++++++++++oooXXXXXX",
"XXXXXXooo++++++++++++++++++++++++++++++++++++++++++++++++++++++++++++++++++++++++++++++oooXXXXXX",
"XXXXXXooo++++++++++++++++++++++++++++++++++++++++++++++++++++++++++++++++++++++++++++++oooXXXXXX",
"...XXXXXX++++++++++++++++++++++++++++++++++++++++++++++++++++++++++++++++++++++++++++++XXXXXX...",
"...XXXXXX++++++++++++++++++++++++++++++++++++++++++++++++++++++++++++++++++++++++++++++XXXXXX...",
"...XXXXXX++++++++++++++++++++++++++++++++++++++++++++++++++++++++++++++++++++++++++++++XXXXXX...",
"XXXXXX+++++++++++++++++++++++++++++++++++++++++++++++++++++++++++++++++++++++++++++++++XXXXXXXXX",
"XXXXXX+++++++++++++++++++++++++++++++++++++++++++++++++++++++++++++++++++++++++++++++++XXXXXXXXX",
"XXXXXX+++++++++++++++++++++++++++++++++++++++++++++++++++++++++++++++++++++++++++++++++XXXXXXXXX",
"XXXooo++++++++++++++++++++++++++++++++++++++++++++++++++++++++++++++++++++++++++++++++++++oooXXX",
"XXXooo++++++++++++++++++++++++++++++++++++++++++++++++++++++++++++++++++++++++++++++++++++oooXXX",
"XXXooo++++++++++++++++++++++++++++++++++++++++++++++++++++++++++++++++++++++++++++++++++++oooXXX",
"XXXoooOOO+++++++++++++++++++++++++++++++++++++++++++++++++++++++++++++++++++++++++++++++++oooXXX",
"XXXoooOOO+++++++++++++++++++++++++++++++++++++++++++++++++++++++++++++++++++++++++++++++++oooXXX",
"XXXoooOOO+++++++++++++++++++++++++++++++++++++++++++++++++++++++++++++++++++++++++++++++++oooXXX",
"XXXoooOOO++++++++++++++++++++++++++++++++++++++++++++++++++++++++++++++++++++++++++++++OOOoooXXX",
"XXXoooOOO++++++++++++++++++++++++++++++++++++++++++++++++++++++++++++++++++++++++++++++OOOoooXXX",
"XXXoooOOO++++++++++++++++++++++++++++++++++++++++++++++++++++++++++++++++++++++++++++++OOOoooXXX",
"XXXXXXooo++++++++++++++++++++++++++++++++++++++++++++++++++++++++++++++++++++++++++++++oooXXXXXX",
"XXXXXXooo++++++++++++++++++++++++++++++++++++++++++++++++++++++++++++++++++++++++++++++oooXXXXXX",
"XXXXXXooo++++++++++++++++++++++++++++++++++++++++++++++++++++++++++++++++++++++++++++++oooXXXXXX",
"...XXXXXX++++++++++++++++++++++++++++++++++++++++++++++++++++++++++++++++++++++++++++++XXXXXX   ",
"...XXXXXX++++++++++++++++++++++++++++++++++++++++++++++++++++++++++++++++++++++++++++++XXXXXX   ",
"...XXXXXX++++++++++++++++++++++++++++++++++++++++++++++++++++++++++++++++++++++++++++++XXXXXX   ",
"XXXXXXXXX++++++++++++++++++++++++++++++++++++++++++++++++++++++++++++++++++++++++++++++XXXXXXXXX",
"XXXXXXXXX++++++++++++++++++++++++++++++++++++++++++++++++++++++++++++++++++++++++++++++XXXXXXXXX",
"XXXXXXXXX++++++++++++++++++++++++++++++++++++++++++++++++++++++++++++++++++++++++++++++XXXXXXXXX",
"XXXXXXOOO+++++++++++++++++++++++++++++++++++++++++++++++++++++++++++++++++++++++++++++++++XXXXXX",
"XXXXXXOOO+++++++++++++++++++++++++++++++++++++++++++++++++++++++++++++++++++++++++++++++++XXXXXX",
"XXXXXXOOO+++++++++++++++++++++++++++++++++++++++++++++++++++++++++++++++++++++++++++++++++XXXXXX",
"XXXOOOOOO+++++++++++++++++++++++++++++++++++++++++++++++++++++++++++++++++++++++++++++++++OOOXXX",
"XXXOOOOOO+++++++++++++++++++++++++++++++++++++++++++++++++++++++++++++++++++++++++++++++++OOOXXX",
"XXXOOOOOO+++++++++++++++++++++++++++++++++++++++++++++++++++++++++++++++++++++++++++++++++OOOXXX",
"XXXoooOOO+++++++++++++++++++++++++++++++++++++++++++++++++++++++++++++++++++++++++++++++++oooXXX",
"XXXoooOOO+++++++++++++++++++++++++++++++++++++++++++++++++++++++++++++++++++++++++++++++++oooXXX",
"XXXoooOOO+++++++++++++++++++++++++++++++++++++++++++++++++++++++++++++++++++++++++++++++++oooXXX",
"XXXOOO++++++++++++++++++++++++++++++++++++++++++++++++++++++++++++++++++++++++++++++++++++OOOXXX",
"XXXOOO++++++++++++++++++++++++++++++++++++++++++++++++++++++++++++++++++++++++++++++++++++OOOXXX",
"XXXOOO++++++++++++++++++++++++++++++++++++++++++++++++++++++++++++++++++++++++++++++++++++OOOXXX",
"XXXooo++++++++++++++++++++++++++++++++++++++++++++++++++++++++++++++++++++++++++++++++++++oooXXX",
"XXXooo++++++++++++++++++++++++++++++++++++++++++++++++++++++++++++++++++++++++++++++++++++oooXXX",
"XXXooo++++++++++++++++++++++++++++++++++++++++++++++++++++++++++++++++++++++++++++++++++++oooXXX",
"XXXoooOOO++++++++++++++++++++++++++++++++++++++++++++++++++++++++++++++++++++++++++++++OOOoooXXX",
"XXXoooOOO++++++++++++++++++++++++++++++++++++++++++++++++++++++++++++++++++++++++++++++OOOoooXXX",
"XXXoooOOO++++++++++++++++++++++++++++++++++++++++++++++++++++++++++++++++++++++++++++++OOOoooXXX",
"XXXoooOOO++++++++++++++++++++++++++++++++++++++++++++++++++++++++++++++++++++++++++++++OOOoooXXX",
"XXXoooOOO++++++++++++++++++++++++++++++++++++++++++++++++++++++++++++++++++++++++++++++OOOoooXXX",
"XXXoooOOO++++++++++++++++++++++++++++++++++++++++++++++++++++++++++++++++++++++++++++++OOOoooXXX",
"XXXXXXooo++++++++++++++++++++++++++++++++++++++++++++++++++++++++++++++++++++++++++++++oooXXXXXX",
"XXXXXXooo++++++++++++++++++++++++++++++++++++++++++++++++++++++++++++++++++++++++++++++oooXXXXXX",
"XXXXXXooo++++++++++++++++++++++++++++++++++++++++++++++++++++++++++++++++++++++++++++++oooXXXXXX",
"   XXXXXX++++++++++++++++++++++++++++++++++++++++++++++++++++++++++++++++++++++++++++++XXXXXX   ",
"   XXXXXX++++++++++++++++++++++++++++++++++++++++++++++++++++++++++++++++++++++++++++++XXXXXX   ",
"   XXXXXX++++++++++++++++++++++++++++++++++++++++++++++++++++++++++++++++++++++++++++++XXXXXX   "
};
