/* XPM */
static char *_b6931c0575f47be860608cda1704bd6K5WQgJTGfhBPObo2[] = {
/* columns rows colors chars-per-pixel */
"96 96 4 1 ",
"  c None",
". c #423934",
"X c #59C135",
"o c #9CDB43",
/* pixels */
"ooooooooooooooooooooooooooooooooooooooooooooooooooooooooooooooooooXXXooooooooooooooooooooooooooo",
"ooooooooooooooooooooooooooooooooooooooooooooooooooooooooooooooooooXXXooooooooooooooooooooooooooo",
"ooooooooooooooooooooooooooooooooooooooooooooooooooooooooooooooooooXXXooooooooooooooooooooooooooo",
"...oooooooooooooooooooooooooooooooooooooooooooooooooooooooooooooooXXXooooooXXXooooooooooooooo...",
"...oooooooooooooooooooooooooooooooooooooooooooooooooooooooooooooooXXXooooooXXXooooooooooooooo...",
"...oooooooooooooooooooooooooooooooooooooooooooooooooooooooooooooooXXXooooooXXXooooooooooooooo...",
"...oooXXXooooooooooooXXXXXXoooooooooooooooooooooooooooXXXXXXXXXXXXoooXXXXXXooooooXXXooooooXXX...",
"...oooXXXooooooooooooXXXXXXoooooooooooooooooooooooooooXXXXXXXXXXXXoooXXXXXXooooooXXXooooooXXX...",
"...oooXXXooooooooooooXXXXXXoooooooooooooooooooooooooooXXXXXXXXXXXXoooXXXXXXooooooXXXooooooXXX...",
"XXXoooooooooooooooooooooXXXXXXXXXoooXXXooooooooooooooooooooooooooooooooooooooooooooooooooooooooo",
"XXXoooooooooooooooooooooXXXXXXXXXoooXXXooooooooooooooooooooooooooooooooooooooooooooooooooooooooo",
"XXXoooooooooooooooooooooXXXXXXXXXoooXXXooooooooooooooooooooooooooooooooooooooooooooooooooooooooo",
"...XXXXXXoooooooooooooooooooooooooooooooooooooooooooooooooooooooooooooooooooooooooooooooooooo...",
"...XXXXXXoooooooooooooooooooooooooooooooooooooooooooooooooooooooooooooooooooooooooooooooooooo...",
"...XXXXXXoooooooooooooooooooooooooooooooooooooooooooooooooooooooooooooooooooooooooooooooooooo...",
"...XXXXXXXXXooooooooooooooooooooooooooooooooooooooooooooooooooooooooooooooooooooooooooooooooo...",
"...XXXXXXXXXooooooooooooooooooooooooooooooooooooooooooooooooooooooooooooooooooooooooooooooooo...",
"...XXXXXXXXXooooooooooooooooooooooooooooooooooooooooooooooooooooooooooooooooooooooooooooooooo...",
"...XXXoooooooooooooooooooooooooooooooooooooooooooooooooooooooooooooooooooooooooooXXXoooXXXoooXXX",
"...XXXoooooooooooooooooooooooooooooooooooooooooooooooooooooooooooooooooooooooooooXXXoooXXXoooXXX",
"...XXXoooooooooooooooooooooooooooooooooooooooooooooooooooooooooooooooooooooooooooXXXoooXXXoooXXX",
"XXXXXXoooooooooooooooooooooooooooXXXXXXXXXoooooooooXXXoooXXXXXXXXXoooooooooooooooXXXXXXoooXXX...",
"XXXXXXoooooooooooooooooooooooooooXXXXXXXXXoooooooooXXXoooXXXXXXXXXoooooooooooooooXXXXXXoooXXX...",
"XXXXXXoooooooooooooooooooooooooooXXXXXXXXXoooooooooXXXoooXXXXXXXXXoooooooooooooooXXXXXXoooXXX...",
"...oooooooooooooooooooooooooooooooooooooooooooooooooooXXXoooooooooooooooooooooXXXXXXXXXXXXXXX...",
"...oooooooooooooooooooooooooooooooooooooooooooooooooooXXXoooooooooooooooooooooXXXXXXXXXXXXXXX...",
"...oooooooooooooooooooooooooooooooooooooooooooooooooooXXXoooooooooooooooooooooXXXXXXXXXXXXXXX...",
"...XXXooooooXXXoooooooooooooooooooooooooooooooooooooooooooooooooooooooooooooooooooooooooooooo...",
"...XXXooooooXXXoooooooooooooooooooooooooooooooooooooooooooooooooooooooooooooooooooooooooooooo...",
"...XXXooooooXXXoooooooooooooooooooooooooooooooooooooooooooooooooooooooooooooooooooooooooooooo...",
"...oooXXXXXXXXXoooXXXXXXooooooooooooooooooooooooooooooooooooooooooooooooooooooooooooooooooooo...",
"...oooXXXXXXXXXoooXXXXXXooooooooooooooooooooooooooooooooooooooooooooooooooooooooooooooooooooo...",
"...oooXXXXXXXXXoooXXXXXXooooooooooooooooooooooooooooooooooooooooooooooooooooooooooooooooooooo...",
"XXXoooXXXXXXXXXXXXXXXXXXXXXooooooooooooooooooooooooooooooooooooooooooXXXoooooooooooooooooooooXXX",
"XXXoooXXXXXXXXXXXXXXXXXXXXXooooooooooooooooooooooooooooooooooooooooooXXXoooooooooooooooooooooXXX",
"XXXoooXXXXXXXXXXXXXXXXXXXXXooooooooooooooooooooooooooooooooooooooooooXXXoooooooooooooooooooooXXX",
"...XXXXXXXXXooooooooooooooooooooooooooooooooooooooooooooooooooooooooooooXXXXXXXXXoooooooooXXX...",
"...XXXXXXXXXooooooooooooooooooooooooooooooooooooooooooooooooooooooooooooXXXXXXXXXoooooooooXXX...",
"...XXXXXXXXXooooooooooooooooooooooooooooooooooooooooooooooooooooooooooooXXXXXXXXXoooooooooXXX...",
"...ooooooooooooooooooooooooooooooooooooooooooooooooooooooooooooooooooooooooooooooooooooXXXXXX...",
"...ooooooooooooooooooooooooooooooooooooooooooooooooooooooooooooooooooooooooooooooooooooXXXXXX...",
"...ooooooooooooooooooooooooooooooooooooooooooooooooooooooooooooooooooooooooooooooooooooXXXXXX...",
"XXXooooooooooooooooooooooooooooooooooooXXXXXXXXXXXXXXXooooooXXXoooXXXoooooooooooooooooooooXXX...",
"XXXooooooooooooooooooooooooooooooooooooXXXXXXXXXXXXXXXooooooXXXoooXXXoooooooooooooooooooooXXX...",
"XXXooooooooooooooooooooooooooooooooooooXXXXXXXXXXXXXXXooooooXXXoooXXXoooooooooooooooooooooXXX...",
"...XXXXXXXXXooooooooooooooooooooooooXXXXXXXXXXXXooooooXXXXXXoooooooooooooooooooooooooooooooooXXX",
"...XXXXXXXXXooooooooooooooooooooooooXXXXXXXXXXXXooooooXXXXXXoooooooooooooooooooooooooooooooooXXX",
"...XXXXXXXXXooooooooooooooooooooooooXXXXXXXXXXXXooooooXXXXXXoooooooooooooooooooooooooooooooooXXX",
"...XXXXXXXXXXXXoooooooooooooooooooooooooooooooooooooooooooooooooooooooooooooooooooooooooooooo...",
"...XXXXXXXXXXXXoooooooooooooooooooooooooooooooooooooooooooooooooooooooooooooooooooooooooooooo...",
"...XXXXXXXXXXXXoooooooooooooooooooooooooooooooooooooooooooooooooooooooooooooooooooooooooooooo...",
"...XXXXXXoooooooooooooooooooooooooooooooooooooooooooooooooooooooooXXXXXXooooooooooooooooooooo...",
"...XXXXXXoooooooooooooooooooooooooooooooooooooooooooooooooooooooooXXXXXXooooooooooooooooooooo...",
"...XXXXXXoooooooooooooooooooooooooooooooooooooooooooooooooooooooooXXXXXXooooooooooooooooooooo...",
"...XXXXXXXXXooooooXXXXXXooooooXXXXXXXXXooooooooooooooooooooooooooooooooooooooooooooooooXXXXXX...",
"...XXXXXXXXXooooooXXXXXXooooooXXXXXXXXXooooooooooooooooooooooooooooooooooooooooooooooooXXXXXX...",
"...XXXXXXXXXooooooXXXXXXooooooXXXXXXXXXooooooooooooooooooooooooooooooooooooooooooooooooXXXXXX...",
"XXXXXXXXXoooooooooooooooooooooooooooooooooooooooooooooooooooooooooooooooooooooXXXXXXXXXXXXXXXooo",
"XXXXXXXXXoooooooooooooooooooooooooooooooooooooooooooooooooooooooooooooooooooooXXXXXXXXXXXXXXXooo",
"XXXXXXXXXoooooooooooooooooooooooooooooooooooooooooooooooooooooooooooooooooooooXXXXXXXXXXXXXXXooo",
"...XXXooooooooooooooooooooooooooooooooooooooooooooooooooooooooooooooooooooooooooooooooooooXXX...",
"...XXXooooooooooooooooooooooooooooooooooooooooooooooooooooooooooooooooooooooooooooooooooooXXX...",
"...XXXooooooooooooooooooooooooooooooooooooooooooooooooooooooooooooooooooooooooooooooooooooXXX...",
"...XXXXXXooooooooooooooooooooooooooooooooooooooooooooooooooooooooooooXXXooooooooooooooooooooo...",
"...XXXXXXooooooooooooooooooooooooooooooooooooooooooooooooooooooooooooXXXooooooooooooooooooooo...",
"...XXXXXXooooooooooooooooooooooooooooooooooooooooooooooooooooooooooooXXXooooooooooooooooooooo...",
"...ooooooXXXoooooooooooooooXXXooooooooooooooooooooooooXXXXXXXXXXXXXXXXXXXXXooooooooooooooooooXXX",
"...ooooooXXXoooooooooooooooXXXooooooooooooooooooooooooXXXXXXXXXXXXXXXXXXXXXooooooooooooooooooXXX",
"...ooooooXXXoooooooooooooooXXXooooooooooooooooooooooooXXXXXXXXXXXXXXXXXXXXXooooooooooooooooooXXX",
"XXXXXXXXXoooooooooooooooXXXoooXXXXXXXXXoooooooooooooooooooooXXXXXXXXXXXXoooXXXooooooooooooXXX...",
"XXXXXXXXXoooooooooooooooXXXoooXXXXXXXXXoooooooooooooooooooooXXXXXXXXXXXXoooXXXooooooooooooXXX...",
"XXXXXXXXXoooooooooooooooXXXoooXXXXXXXXXoooooooooooooooooooooXXXXXXXXXXXXoooXXXooooooooooooXXX...",
"...ooooooooooooooooooooooooooooooooooooooooooooooooooooooooooooooooooooooooooooooooooooXXXXXX...",
"...ooooooooooooooooooooooooooooooooooooooooooooooooooooooooooooooooooooooooooooooooooooXXXXXX...",
"...ooooooooooooooooooooooooooooooooooooooooooooooooooooooooooooooooooooooooooooooooooooXXXXXX...",
"...oooooooooooooooooooooooooooooooooooooooooooooooooooooooooooooooooooooooooooooooooooooooooo...",
"...oooooooooooooooooooooooooooooooooooooooooooooooooooooooooooooooooooooooooooooooooooooooooo...",
"...oooooooooooooooooooooooooooooooooooooooooooooooooooooooooooooooooooooooooooooooooooooooooo...",
"...XXXooooooooooooooooooooooooooooooooooooooooooooooooooooooooooooooooooXXXoooooooooooooooooo...",
"...XXXooooooooooooooooooooooooooooooooooooooooooooooooooooooooooooooooooXXXoooooooooooooooooo...",
"...XXXooooooooooooooooooooooooooooooooooooooooooooooooooooooooooooooooooXXXoooooooooooooooooo...",
"...oooXXXXXXXXXooooooooooooooooooXXXoooXXXoooXXXXXXXXXXXXXXXoooooooooooooooXXXXXXooooooXXXXXXXXX",
"...oooXXXXXXXXXooooooooooooooooooXXXoooXXXoooXXXXXXXXXXXXXXXoooooooooooooooXXXXXXooooooXXXXXXXXX",
"...oooXXXXXXXXXooooooooooooooooooXXXoooXXXoooXXXXXXXXXXXXXXXoooooooooooooooXXXXXXooooooXXXXXXXXX",
"...ooooooooooooooooooooooooXXXXXXXXXXXXXXXXXXXXXXXXXXXXXXXXXXXXoooooooooooooooooooooooooooooo...",
"...ooooooooooooooooooooooooXXXXXXXXXXXXXXXXXXXXXXXXXXXXXXXXXXXXoooooooooooooooooooooooooooooo...",
"...ooooooooooooooooooooooooXXXXXXXXXXXXXXXXXXXXXXXXXXXXXXXXXXXXoooooooooooooooooooooooooooooo...",
"...oooooooooooooooooooooooooooooooooooooooooooooooooooooooooooooooooooooooooooooooooooooooooo...",
"...oooooooooooooooooooooooooooooooooooooooooooooooooooooooooooooooooooooooooooooooooooooooooo...",
"...oooooooooooooooooooooooooooooooooooooooooooooooooooooooooooooooooooooooooooooooooooooooooo...",
"XXXXXXooooooooooooXXXoooooooooooooooooooooooooooooooooooooooooooooXXXooooooooooooooooooXXXooo...",
"XXXXXXooooooooooooXXXoooooooooooooooooooooooooooooooooooooooooooooXXXooooooooooooooooooXXXooo...",
"XXXXXXooooooooooooXXXoooooooooooooooooooooooooooooooooooooooooooooXXXooooooooooooooooooXXXooo...",
"XXXXXXXXX      XXXXXXXXXoooooo      oooXXXXXXoooooo      ooooooXXX      oooooooooooo      XXXXXX",
"XXXXXXXXX      XXXXXXXXXoooooo      oooXXXXXXoooooo      ooooooXXX      oooooooooooo      XXXXXX",
"XXXXXXXXX      XXXXXXXXXoooooo      oooXXXXXXoooooo      ooooooXXX      oooooooooooo      XXXXXX"
};
