/* XPM */
static char *ae7ce4d641fc45a7ab47c6d882bc168fXCZLJSeVVjOhe5ci[] = {
/* columns rows colors chars-per-pixel */
"64 64 6 1 ",
"  c None",
". c #1D2B53",
"X c #7E2553",
"o c #FF004D",
"O c #FFEC27",
"+ c #FF77A8",
/* pixels */
"                  ............................                  ",
"                  ............................                  ",
"                  ............................                  ",
"                  ............................                  ",
"                  ............................                  ",
"                  ............................                  ",
"              ....oooooooooooooooooo++++++++++....              ",
"              ....oooooooooooooooooo++++++++++....              ",
"              ....oooooooooooooooooo++++++++++....              ",
"              ....oooooooooooooooooo++++++++++....              ",
"              ....oooooooooooooooooo++++++++++....              ",
"              ....oooooooooooooooooo++++++++++....              ",
"          ....XXXXoooooooooooooooooooooooo++++++++....          ",
"          ....XXXXoooooooooooooooooooooooo++++++++....          ",
"          ....XXXXoooooooooooooooooooooooo++++++++....          ",
"          ....XXXXoooooooooooooooooooooooo++++++++....          ",
"          ....XXXXoooooooooooooooooooooooo++++++++....          ",
"          ....XXXXoooooooooooooooooooooooo++++++++....          ",
"    ......XXXXoooooooooooooooooooooooooooooooooooooooo......    ",
"    ......XXXXoooooooooooooooooooooooooooooooooooooooo......    ",
"    ......XXXXoooooooooooooooooooooooooooooooooooooooo......    ",
"    ......XXXXoooooooooooooooooooooooooooooooooooooooo......    ",
"    ......XXXXoooooooooooooooooooooooooooooooooooooooo......    ",
"    ......XXXXoooooooooooooooooooooooooooooooooooooooo......    ",
"    ......XXXXooooooooooooooOOOOooooooooooooooooooOOOO......    ",
"    ......XXXXooooooooooooooOOOOooooooooooooooooooOOOO......    ",
"    ......XXXXooooooooooooooOOOOooooooooooooooooooOOOO......    ",
"    ......XXXXooooooooooooooOOOOooooooooooooooooooOOOO......    ",
"    ......XXXXooooooooooooooOOOOooooooooooooooooooOOOO......    ",
"    ......XXXXooooooooooooooOOOOooooooooooooooooooOOOO......    ",
"....XXXXXXXXXXoooooooooooooooooooooooooooooooooooooooooooooo....",
"....XXXXXXXXXXoooooooooooooooooooooooooooooooooooooooooooooo....",
"....XXXXXXXXXXoooooooooooooooooooooooooooooooooooooooooooooo....",
"....XXXXXXXXXXoooooooooooooooooooooooooooooooooooooooooooooo....",
"....XXXXXXXXXXoooooooooooooooooooooooooooooooooooooooooooooo....",
"....XXXXXXXXXXoooooooooooooooooooooooooooooooooooooooooooooo....",
"....XXXXXXXXXXoooooooooooooooooooooooooooooooooooooooooooooo....",
"....XXXXXXXXXXoooooooooooooooooooooooooooooooooooooooooooooo....",
"....XXXXXXXXXXoooooooooooooooooooooooooooooooooooooooooooooo....",
"....XXXXXXXXXXoooooooooooooooooooooooooooooooooooooooooooooo....",
"....XXXXXXXXXXXXXXoooooooooooooooooooooooo........oooooooooo....",
"....XXXXXXXXXXXXXXoooooooooooooooooooooooo........oooooooooo....",
"....XXXXXXXXXXXXXXoooooooooooooooooooooooo........oooooooooo....",
"....XXXXXXXXXXXXXXoooooooooooooooooooooooo........oooooooooo....",
"....XXXXXXXXXXXXXXoooooooooooooooooooooooo........oooooooooo....",
"....XXXXXXXXXXXXXXoooooooooooooooooooooooo........oooooooooo....",
"....XXXXXXXXXXXXXXXXXXooooooooooooooooooooooooooooooooXXXXXX....",
"....XXXXXXXXXXXXXXXXXXooooooooooooooooooooooooooooooooXXXXXX....",
"....XXXXXXXXXXXXXXXXXXooooooooooooooooooooooooooooooooXXXXXX....",
"....XXXXXXXXXXXXXXXXXXooooooooooooooooooooooooooooooooXXXXXX....",
"....XXXXXXXXXXXXXXXXXXooooooooooooooooooooooooooooooooXXXXXX....",
"....XXXXXXXXXXXXXXXXXXooooooooooooooooooooooooooooooooXXXXXX....",
"..........XXXXXXXXXXXXXXXXXXXXXXXXXXXXXXXXXXXXXXXXXXXX..........",
"..........XXXXXXXXXXXXXXXXXXXXXXXXXXXXXXXXXXXXXXXXXXXX..........",
"..........XXXXXXXXXXXXXXXXXXXXXXXXXXXXXXXXXXXXXXXXXXXX..........",
"..........XXXXXXXXXXXXXXXXXXXXXXXXXXXXXXXXXXXXXXXXXXXX..........",
"..........XXXXXXXXXXXXXXXXXXXXXXXXXXXXXXXXXXXXXXXXXXXX..........",
"..........XXXXXXXXXXXXXXXXXXXXXXXXXXXXXXXXXXXXXXXXXXXX..........",
"    ........................................................    ",
"    ........................................................    ",
"    ........................................................    ",
"    ........................................................    ",
"    ........................................................    ",
"    ........................................................    "
};
