/* XPM */
static char *f29486eb2b784f318e0d0e54637e67d2fsnglRaagXMZNYq1[] = {
/* columns rows colors chars-per-pixel */
"64 64 6 1 ",
"  c #1D2B53",
". c #7E2553",
"X c #FF004D",
"o c #FFEC27",
"O c #0",
"+ c #FF77A8",
/* pixels */
"OOOOOOOOOOOOOOOOOO                            OOOOOOOOOOOOOOOOOO",
"OOOOOOOOOOOOOOOOOO                            OOOOOOOOOOOOOOOOOO",
"OOOOOOOOOOOOOOOOOO                            OOOOOOOOOOOOOOOOOO",
"OOOOOOOOOOOOOOOOOO                            OOOOOOOOOOOOOOOOOO",
"OOOOOOOOOOOOOOOOOO                            OOOOOOOOOOOOOOOOOO",
"OOOOOOOOOOOOOOOOOO                            OOOOOOOOOOOOOOOOOO",
"OOOOOOOOOOOOOO    XXXXXXXXXXXXXXXXXX++++++++++    OOOOOOOOOOOOOO",
"OOOOOOOOOOOOOO    XXXXXXXXXXXXXXXXXX++++++++++    OOOOOOOOOOOOOO",
"OOOOOOOOOOOOOO    XXXXXXXXXXXXXXXXXX++++++++++    OOOOOOOOOOOOOO",
"OOOOOOOOOOOOOO    XXXXXXXXXXXXXXXXXX++++++++++    OOOOOOOOOOOOOO",
"OOOOOOOOOOOOOO    XXXXXXXXXXXXXXXXXX++++++++++    OOOOOOOOOOOOOO",
"OOOOOOOOOOOOOO    XXXXXXXXXXXXXXXXXX++++++++++    OOOOOOOOOOOOOO",
"OOOOOOOOOO    ....XXXXXXXXXXXXXXXXXXXXXXXX++++++++    OOOOOOOOOO",
"OOOOOOOOOO    ....XXXXXXXXXXXXXXXXXXXXXXXX++++++++    OOOOOOOOOO",
"OOOOOOOOOO    ....XXXXXXXXXXXXXXXXXXXXXXXX++++++++    OOOOOOOOOO",
"OOOOOOOOOO    ....XXXXXXXXXXXXXXXXXXXXXXXX++++++++    OOOOOOOOOO",
"OOOOOOOOOO    ....XXXXXXXXXXXXXXXXXXXXXXXX++++++++    OOOOOOOOOO",
"OOOOOOOOOO    ....XXXXXXXXXXXXXXXXXXXXXXXX++++++++    OOOOOOOOOO",
"OOOO      ....XXXXXXXXXXXXXXXXXXXXXXXXXXXXXXXXXXXXXXXX      OOOO",
"OOOO      ....XXXXXXXXXXXXXXXXXXXXXXXXXXXXXXXXXXXXXXXX      OOOO",
"OOOO      ....XXXXXXXXXXXXXXXXXXXXXXXXXXXXXXXXXXXXXXXX      OOOO",
"OOOO      ....XXXXXXXXXXXXXXXXXXXXXXXXXXXXXXXXXXXXXXXX      OOOO",
"OOOO      ....XXXXXXXXXXXXXXXXXXXXXXXXXXXXXXXXXXXXXXXX      OOOO",
"OOOO      ....XXXXXXXXXXXXXXXXXXXXXXXXXXXXXXXXXXXXXXXX      OOOO",
"OOOO      ....XXXXXXXXXXXXXXooooXXXXXXXXXXXXXXXXXXoooo      OOOO",
"OOOO      ....XXXXXXXXXXXXXXooooXXXXXXXXXXXXXXXXXXoooo      OOOO",
"OOOO      ....XXXXXXXXXXXXXXooooXXXXXXXXXXXXXXXXXXoooo      OOOO",
"OOOO      ....XXXXXXXXXXXXXXooooXXXXXXXXXXXXXXXXXXoooo      OOOO",
"OOOO      ....XXXXXXXXXXXXXXooooXXXXXXXXXXXXXXXXXXoooo      OOOO",
"OOOO      ....XXXXXXXXXXXXXXooooXXXXXXXXXXXXXXXXXXoooo      OOOO",
"    ..........XXXXXXXXXXXXXXXXXXXXXXXXXXXXXXXXXXXXXXXXXXXXXX    ",
"    ..........XXXXXXXXXXXXXXXXXXXXXXXXXXXXXXXXXXXXXXXXXXXXXX    ",
"    ..........XXXXXXXXXXXXXXXXXXXXXXXXXXXXXXXXXXXXXXXXXXXXXX    ",
"    ..........XXXXXXXXXXXXXXXXXXXXXXXXXXXXXXXXXXXXXXXXXXXXXX    ",
"    ..........XXXXXXXXXXXXXXXXXXXXXXXXXXXXXXXXXXXXXXXXXXXXXX    ",
"    ..........XXXXXXXXXXXXXXXXXXXXXXXXXXXXXXXXXXXXXXXXXXXXXX    ",
"    ..........XXXXXXXXXXXXXXXXXXXXXXXXXXXXXXXXXXXXXXXXXXXXXX    ",
"    ..........XXXXXXXXXXXXXXXXXXXXXXXXXXXXXXXXXXXXXXXXXXXXXX    ",
"    ..........XXXXXXXXXXXXXXXXXXXXXXXXXXXXXXXXXXXXXXXXXXXXXX    ",
"    ..........XXXXXXXXXXXXXXXXXXXXXXXXXXXXXXXXXXXXXXXXXXXXXX    ",
"    ..............XXXXXXXXXXXXXXXXXXXXXXXX        XXXXXXXXXX    ",
"    ..............XXXXXXXXXXXXXXXXXXXXXXXX        XXXXXXXXXX    ",
"    ..............XXXXXXXXXXXXXXXXXXXXXXXX        XXXXXXXXXX    ",
"    ..............XXXXXXXXXXXXXXXXXXXXXXXX        XXXXXXXXXX    ",
"    ..............XXXXXXXXXXXXXXXXXXXXXXXX        XXXXXXXXXX    ",
"    ..............XXXXXXXXXXXXXXXXXXXXXXXX        XXXXXXXXXX    ",
"    ..................XXXXXXXXXXXXXXXXXXXXXXXXXXXXXXXX......    ",
"    ..................XXXXXXXXXXXXXXXXXXXXXXXXXXXXXXXX......    ",
"    ..................XXXXXXXXXXXXXXXXXXXXXXXXXXXXXXXX......    ",
"    ..................XXXXXXXXXXXXXXXXXXXXXXXXXXXXXXXX......    ",
"    ..................XXXXXXXXXXXXXXXXXXXXXXXXXXXXXXXX......    ",
"    ..................XXXXXXXXXXXXXXXXXXXXXXXXXXXXXXXX......    ",
"          ............................................          ",
"          ............................................          ",
"          ............................................          ",
"          ............................................          ",
"          ............................................          ",
"          ............................................          ",
"OOOO                                                        OOOO",
"OOOO                                                        OOOO",
"OOOO                                                        OOOO",
"OOOO                                                        OOOO",
"OOOO                                                        OOOO",
"OOOO                                                        OOOO"
};
