/* XPM */
static char *bb831d0bc6764dbeb742da82e0173174SlmAxviEZcsxHZMO[] = {
/* columns rows colors chars-per-pixel */
"64 64 6 1 ",
"O c #0",
". c #1D2B53",
"X c #7E2553",
"o c #FF004D",
"O c #FFEC27",
"+ c #FF77A8",
/* pixels */
"                                                                ",
"                                                                ",
"                                                                ",
"                                                                ",
"                                                                ",
"                                                                ",
"                                                                ",
"                                                                ",
"                                                                ",
"                                                                ",
"                                                                ",
"                                                                ",
"                                                                ",
"                                                                ",
"                                                                ",
"                                                                ",
"                                                                ",
"                                                                ",
"                                                                ",
"                                                                ",
"                                                                ",
"                                                                ",
"                                                                ",
"                                                                ",
"                                                                ",
"                                                                ",
"                                                                ",
"                                                                ",
"                ............................                    ",
"                ............................                    ",
"                ............................                    ",
"                ............................                    ",
"            ....oooooooooooooooooooo++++++++........            ",
"            ....oooooooooooooooooooo++++++++........            ",
"            ....oooooooooooooooooooo++++++++........            ",
"            ....oooooooooooooooooooo++++++++........            ",
"        ....XXXXoooooooooooooooooooooooo++++++++++++....        ",
"        ....XXXXoooooooooooooooooooooooo++++++++++++....        ",
"        ....XXXXoooooooooooooooooooooooo++++++++++++....        ",
"        ....XXXXoooooooooooooooooooooooo++++++++++++....        ",
"    ....XXXXoooooooooooooooooooooooooooooooooooooooooooo....    ",
"    ....XXXXoooooooooooooooooooooooooooooooooooooooooooo....    ",
"    ....XXXXoooooooooooooooooooooooooooooooooooooooooooo....    ",
"    ....XXXXoooooooooooooooooooooooooooooooooooooooooooo....    ",
"    ....XXXXooooooooooooooooOOOOooooooooooooooooooooOOOO....    ",
"    ....XXXXooooooooooooooooOOOOooooooooooooooooooooOOOO....    ",
"    ....XXXXooooooooooooooooOOOOooooooooooooooooooooOOOO....    ",
"    ....XXXXooooooooooooooooOOOOooooooooooooooooooooOOOO....    ",
"....XXXXXXXXoooooooooooooooooooooooooooo............oooooooo....",
"....XXXXXXXXoooooooooooooooooooooooooooo............oooooooo....",
"....XXXXXXXXoooooooooooooooooooooooooooo............oooooooo....",
"....XXXXXXXXoooooooooooooooooooooooooooo............oooooooo....",
"....XXXXXXXXXXXXoooooooooooooooooooooooooooooooooooooooooooo....",
"....XXXXXXXXXXXXoooooooooooooooooooooooooooooooooooooooooooo....",
"....XXXXXXXXXXXXoooooooooooooooooooooooooooooooooooooooooooo....",
"....XXXXXXXXXXXXoooooooooooooooooooooooooooooooooooooooooooo....",
"........XXXXXXXXXXXXXXXXXXXXXXXXXXXXXXXXXXXXXXXXXXXXXXXX........",
"........XXXXXXXXXXXXXXXXXXXXXXXXXXXXXXXXXXXXXXXXXXXXXXXX........",
"........XXXXXXXXXXXXXXXXXXXXXXXXXXXXXXXXXXXXXXXXXXXXXXXX........",
"........XXXXXXXXXXXXXXXXXXXXXXXXXXXXXXXXXXXXXXXXXXXXXXXX........",
"    ........................................................    ",
"    ........................................................    ",
"    ........................................................    ",
"    ........................................................    "
};
