/* XPM */
static char *b5d3166bbfb24202e64700f3cc4cbda5VTUZlmRWR9Vi6xTV[] = {
/* columns rows colors chars-per-pixel */
"64 64 6 1 ",
"O c #0",
". c #1D2B53",
"X c #7E2553",
"o c #FF004D",
"O c #FFEC27",
"+ c #FF77A8",
/* pixels */
"                                                                ",
"                                                                ",
"                                                                ",
"                                                                ",
"                                                                ",
"                                                                ",
"                                                                ",
"                                                                ",
"                                                                ",
"                                                                ",
"                                                                ",
"                                                                ",
"                                                                ",
"                                                                ",
"                                                                ",
"                                                                ",
"                                                                ",
"                                                                ",
"                                                                ",
"                                                                ",
"                                                                ",
"                                                                ",
"                                                                ",
"                                                                ",
"                ............................                    ",
"                ............................                    ",
"                ............................                    ",
"                ............................                    ",
"            ....oooooooooooooooooooo++++++++........            ",
"            ....oooooooooooooooooooo++++++++........            ",
"            ....oooooooooooooooooooo++++++++........            ",
"            ....oooooooooooooooooooo++++++++........            ",
"        ....XXXXoooooooooooooooooooooooo++++++++++++....        ",
"        ....XXXXoooooooooooooooooooooooo++++++++++++....        ",
"        ....XXXXoooooooooooooooooooooooo++++++++++++....        ",
"        ....XXXXoooooooooooooooooooooooo++++++++++++....        ",
"    ....XXXXoooooooooooooooooooooooooooooooooooooooooooo....    ",
"    ....XXXXoooooooooooooooooooooooooooooooooooooooooooo....    ",
"    ....XXXXoooooooooooooooooooooooooooooooooooooooooooo....    ",
"    ....XXXXoooooooooooooooooooooooooooooooooooooooooooo....    ",
"    ....XXXXooooooooooooooooOOOOooooooooooooooooooooOOOO....    ",
"    ....XXXXooooooooooooooooOOOOooooooooooooooooooooOOOO....    ",
"    ....XXXXooooooooooooooooOOOOooooooooooooooooooooOOOO....    ",
"    ....XXXXooooooooooooooooOOOOooooooooooooooooooooOOOO....    ",
"....XXXXXXXXoooooooooooooooooooooooooooooooo........oooooooo....",
"....XXXXXXXXoooooooooooooooooooooooooooooooo........oooooooo....",
"....XXXXXXXXoooooooooooooooooooooooooooooooo........oooooooo....",
"....XXXXXXXXoooooooooooooooooooooooooooooooo........oooooooo....",
"....XXXXXXXXXXXXoooooooooooooooooooooooooooo........oooooooo....",
"....XXXXXXXXXXXXoooooooooooooooooooooooooooo........oooooooo....",
"....XXXXXXXXXXXXoooooooooooooooooooooooooooo........oooooooo....",
"....XXXXXXXXXXXXoooooooooooooooooooooooooooo........oooooooo....",
"....XXXXXXXXXXXXXXXXXXXXooooooooooooooooooooooooooooooooXXXX....",
"....XXXXXXXXXXXXXXXXXXXXooooooooooooooooooooooooooooooooXXXX....",
"....XXXXXXXXXXXXXXXXXXXXooooooooooooooooooooooooooooooooXXXX....",
"....XXXXXXXXXXXXXXXXXXXXooooooooooooooooooooooooooooooooXXXX....",
"........XXXXXXXXXXXXXXXXXXXXXXXXXXXXXXXXXXXXXXXXXXXXXXXX........",
"........XXXXXXXXXXXXXXXXXXXXXXXXXXXXXXXXXXXXXXXXXXXXXXXX........",
"........XXXXXXXXXXXXXXXXXXXXXXXXXXXXXXXXXXXXXXXXXXXXXXXX........",
"........XXXXXXXXXXXXXXXXXXXXXXXXXXXXXXXXXXXXXXXXXXXXXXXX........",
"    ........................................................    ",
"    ........................................................    ",
"    ........................................................    ",
"    ........................................................    "
};
