/* XPM */
static char *_bcab9dbf1c54ebf9ccddbcf2ef99b23WBLF4pHBi2nYYmqh[] = {
/* columns rows colors chars-per-pixel */
"64 64 6 1 ",
"O c #0",
". c #1D2B53",
"X c #7E2553",
"o c #FF004D",
"O c #FFEC27",
"+ c #FF77A8",
/* pixels */
"                                                                ",
"                                                                ",
"                                                                ",
"                                                                ",
"                                                                ",
"                                                                ",
"                                                                ",
"                                                                ",
"                                                                ",
"                                                                ",
"                                                                ",
"                                                                ",
"                                                                ",
"                                                                ",
"                                                                ",
"                                                                ",
"                                                                ",
"                                                                ",
"                                                                ",
"                                                                ",
"                                                                ",
"                                                                ",
"                                                                ",
"                                                                ",
"                ............................                    ",
"                ............................                    ",
"                ............................                    ",
"                ............................                    ",
"            ....oooooooooooooooooooo++++++++........            ",
"            ....oooooooooooooooooooo++++++++........            ",
"            ....oooooooooooooooooooo++++++++........            ",
"            ....oooooooooooooooooooo++++++++........            ",
"        ....XXXXoooooooooooooooooooooooo++++++++++++....        ",
"        ....XXXXoooooooooooooooooooooooo++++++++++++....        ",
"        ....XXXXoooooooooooooooooooooooo++++++++++++....        ",
"        ....XXXXoooooooooooooooooooooooo++++++++++++....        ",
"    ....XXXXoooooooooooooooooooooooooooooooooooooooooooo....    ",
"    ....XXXXoooooooooooooooooooooooooooooooooooooooooooo....    ",
"    ....XXXXoooooooooooooooooooooooooooooooooooooooooooo....    ",
"    ....XXXXoooooooooooooooooooooooooooooooooooooooooooo....    ",
"    ....XXXXooooooooooooooooOOOOooooooooooooooooooooOOOO....    ",
"    ....XXXXooooooooooooooooOOOOooooooooooooooooooooOOOO....    ",
"    ....XXXXooooooooooooooooOOOOooooooooooooooooooooOOOO....    ",
"    ....XXXXooooooooooooooooOOOOooooooooooooooooooooOOOO....    ",
"....XXXXXXXXoooooooooooooooooooooooooooooooo........oooooooo....",
"....XXXXXXXXoooooooooooooooooooooooooooooooo........oooooooo....",
"....XXXXXXXXoooooooooooooooooooooooooooooooo........oooooooo....",
"....XXXXXXXXoooooooooooooooooooooooooooooooo........oooooooo....",
"....XXXXXXXXXXXXoooooooooooooooooooooooooooo........oooooooo....",
"....XXXXXXXXXXXXoooooooooooooooooooooooooooo........oooooooo....",
"....XXXXXXXXXXXXoooooooooooooooooooooooooooo........oooooooo....",
"....XXXXXXXXXXXXoooooooooooooooooooooooooooo........oooooooo....",
"....XXXXXXXXXXXXXXXXXXXXooooooooooooooooooooooooooooooooXXXX....",
"....XXXXXXXXXXXXXXXXXXXXooooooooooooooooooooooooooooooooXXXX....",
"....XXXXXXXXXXXXXXXXXXXXooooooooooooooooooooooooooooooooXXXX....",
"....XXXXXXXXXXXXXXXXXXXXooooooooooooooooooooooooooooooooXXXX....",
"........XXXXXXXXXXXXXXXXXXXXXXXXXXXXXXXXXXXXXXXXXXXXXXXX........",
"........XXXXXXXXXXXXXXXXXXXXXXXXXXXXXXXXXXXXXXXXXXXXXXXX........",
"........XXXXXXXXXXXXXXXXXXXXXXXXXXXXXXXXXXXXXXXXXXXXXXXX........",
"........XXXXXXXXXXXXXXXXXXXXXXXXXXXXXXXXXXXXXXXXXXXXXXXX........",
"    ........................................................    ",
"    ........................................................    ",
"    ........................................................    ",
"    ........................................................    "
};
