/* XPM */
static char * red_slime_spritesheet_xpm[] = {
"176 32 17 1",
" 	c None",
".	c #000000",
"+	c #1D2B53",
"@	c #7E2553",
"#	c #008751",
"$	c #AB5236",
"%	c #5F574F",
"&	c #C2C3C7",
"*	c #FFF1E8",
"=	c #FF004D",
"-	c #FFA300",
";	c #FFEC27",
">	c #00E436",
",	c #29ADFF",
"'	c #83769C",
")	c #FF77A8",
"!	c #FFCCAA",
"                                                                                                                                                                                ",
"                                                                                                                                                                                ",
"                                                                                                                                                                                ",
"                                                                                                                                                                                ",
"                                                                                                                                                                                ",
"                                                                                                                                                                                ",
"                                                                                                                                                                                ",
"                                                                                                                                                                                ",
"                                                                                                                                        ++                                      ",
"                                                                                                                                       +=)+                                     ",
"                                                                                                                                      +@=))+                                    ",
"                                                                                                                                     +@====+                                    ",
"                                                                                                                                     +@==;=;+                                   ",
"                                                                                                                                    +@======+                                   ",
"                                                                                                                       +++          +@====+=+                                   ",
"                                                                                                                      +==)+         +@====+=+                                   ",
"                                                                                                                     +@==))+        +@====+=+                                   ",
"                                                                                                                    +@=====+        +@====+=+                                   ",
"                                       +++                                                                          +@==;==;+       +@====+=+         ++++                      ",
"                                      +==)+                                                                        +@=======+       +@====+=+        +==))+                     ",
"                                     +@==))+          ++++                                                         +@=====+=+       +@@=====+       +@===))+                    ",
"                     ++++++         +@=====+         +==))+                                                        +@=====+=+       +@@@===@+      +@=======+                   ",
"     ++++++         +====))+        +@==;==;+       +@===))+        +++++++          ++++++                        +@=====+=+       ++@@@@@++      +@==;====;+      +++++++     ",
"    +====))+       +@=====))+      +@=======+      +@=======+      +=====))++       +====))+        +++++++        +@=====+=+        +++++++      +@=========+     +=====))++   ",
"   +@=====))+     +@=========+     +@=====+=+      +@==;====;+    +@======)))+     +@=====))+      +=====))++      +@@======+                     +@======+==+    +@======)))+  ",
"  +@=========+    +@===;====;+     +@=====+=+     +@=========+   +@===========+   +@=========+    +@======)))+     +@@@====@+                     +@======+==+   +@===========+ ",
"  +@===;====;+   +@@==========+    +@=====+=+     +@======+==+   +@====;=====;+   +@===;====;+   +@===========+    ++@@@@@@++                     +@@=====+==+   +@====;=====;+ ",
" +@@==========+  +@@==========+    +@=====+=+     +@======+==+  +@@========++==+ +@@==========+  +@====;=====;+     ++++++++                      +@@@======@+  +@@========++==+",
" +@@@=====++==+  +@@@=====++==+    +@@======+     +@@=====+==+  +@@@=======++==+ +@@@=====++==+ +@@=======+++==+                                  ++@@@@@@@@++  +@@@=======++==+",
" +@@@@=======@+  +@@@@=======@+    +@@@====@+     +@@@======@+  +@@@@@========@+ +@@@@=======@+ +@@@===========+                                   ++++++++++   +@@@@@========@+",
" ++@@@@@@@@@@++  ++@@@@@@@@@@++    ++@@@@@@++     ++@@@@@@@@++  ++@@@@@@@@@@@@++ ++@@@@@@@@@@++ ++@@@@@@@@@@@@++                                                ++@@@@@@@@@@@@++",
"  ++++++++++++    ++++++++++++      ++++++++       ++++++++++    ++++++++++++++   ++++++++++++   ++++++++++++++                                                  ++++++++++++++ "};
