/* XPM */
static char *da5ccf7a901b4a0c803972a2f818a213nE6ik1t6iV8AgzPO[] = {
/* columns rows colors chars-per-pixel */
"64 64 6 1 ",
"O c #0",
". c #1D2B53",
"X c #7E2553",
"o c #FF004D",
"O c #FFEC27",
"+ c #FF77A8",
/* pixels */
"0000000000000000000000000000000000000000000000000000000000000000",
"0000000000000000000000000000000000000000000000000000000000000000",
"0000000000000000000000000000000000000000000000000000000000000000",
"0000000000000000000000000000000000000000000000000000000000000000",
"0000000000000000000000000000000000000000000000000000000000000000",
"0000000000000000000000000000000000000000000000000000000000000000",
"0000000000000000000000000000000000000000000000000000000000000000",
"0000000000000000000000000000000000000000000000000000000000000000",
"0000000000000000000000000000000000000000000000000000000000000000",
"0000000000000000000000000000000000000000000000000000000000000000",
"0000000000000000000000000000000000000000000000000000000000000000",
"0000000000000000000000000000000000000000000000000000000000000000",
"0000000000000000000000000000000000000000000000000000000000000000",
"0000000000000000000000000000000000000000000000000000000000000000",
"0000000000000000000000000000000000000000000000000000000000000000",
"0000000000000000000000000000000000000000000000000000000000000000",
"0000000000000000000000000000000000000000000000000000000000000000",
"0000000000000000000000000000000000000000000000000000000000000000",
"0000000000000000000000000000000000000000000000000000000000000000",
"0000000000000000000000000000000000000000000000000000000000000000",
"                    ........................                    ",
"                    ........................                    ",
"                    ........................                    ",
"                    ........................                    ",
"                ....oooooooooooooooo++++++++....                ",
"                ....oooooooooooooooo++++++++....                ",
"                ....oooooooooooooooo++++++++....                ",
"                ....oooooooooooooooo++++++++....                ",
"            ....XXXXoooooooooooooooooooo++++++++....            ",
"            ....XXXXoooooooooooooooooooo++++++++....            ",
"            ....XXXXoooooooooooooooooooo++++++++....            ",
"            ....XXXXoooooooooooooooooooo++++++++....            ",
"        ....XXXXoooooooooooooooooooooooooooooooooooo....        ",
"        ....XXXXoooooooooooooooooooooooooooooooooooo....        ",
"        ....XXXXoooooooooooooooooooooooooooooooooooo....        ",
"        ....XXXXoooooooooooooooooooooooooooooooooooo....        ",
"        ....XXXXooooooooooooOOOOooooooooooooooooOOOO....        ",
"        ....XXXXooooooooooooOOOOooooooooooooooooOOOO....        ",
"        ....XXXXooooooooooooOOOOooooooooooooooooOOOO....        ",
"        ....XXXXooooooooooooOOOOooooooooooooooooOOOO....        ",
"    ....XXXXXXXXoooooooooooooooooooooooooooooooooooooooo....    ",
"    ....XXXXXXXXoooooooooooooooooooooooooooooooooooooooo....    ",
"    ....XXXXXXXXoooooooooooooooooooooooooooooooooooooooo....    ",
"    ....XXXXXXXXoooooooooooooooooooooooooooooooooooooooo....    ",
"    ....XXXXXXXXoooooooooooooooooooooooooooooooooooooooo....    ",
"    ....XXXXXXXXoooooooooooooooooooooooooooooooooooooooo....    ",
"    ....XXXXXXXXoooooooooooooooooooooooooooooooooooooooo....    ",
"    ....XXXXXXXXoooooooooooooooooooooooooooooooooooooooo....    ",
"    ....XXXXXXXXXXXXoooooooooooooooooooo........oooooooo....    ",
"    ....XXXXXXXXXXXXoooooooooooooooooooo........oooooooo....    ",
"    ....XXXXXXXXXXXXoooooooooooooooooooo........oooooooo....    ",
"    ....XXXXXXXXXXXXoooooooooooooooooooo........oooooooo....    ",
"    ....XXXXXXXXXXXXXXXXooooooooooooooooooooooooooooXXXX....    ",
"    ....XXXXXXXXXXXXXXXXooooooooooooooooooooooooooooXXXX....    ",
"    ....XXXXXXXXXXXXXXXXooooooooooooooooooooooooooooXXXX....    ",
"    ....XXXXXXXXXXXXXXXXooooooooooooooooooooooooooooXXXX....    ",
"    ........XXXXXXXXXXXXXXXXXXXXXXXXXXXXXXXXXXXXXXXX........    ",
"    ........XXXXXXXXXXXXXXXXXXXXXXXXXXXXXXXXXXXXXXXX........    ",
"    ........XXXXXXXXXXXXXXXXXXXXXXXXXXXXXXXXXXXXXXXX........    ",
"    ........XXXXXXXXXXXXXXXXXXXXXXXXXXXXXXXXXXXXXXXX........    ",
"        ................................................        ",
"        ................................................        ",
"        ................................................        ",
"        ................................................        "
};
