/* XPM */
static char *_063a81c9d644c658a1c0a9ec6f80baaU1JmlTNuaRJNe3Ih[] = {
/* columns rows colors chars-per-pixel */
"64 64 6 1 ",
"O c #0",
". c #1D2B53",
"X c #7E2553",
"o c #FF004D",
"O c #FFEC27",
"+ c #FF77A8",
/* pixels */
"                                                                ",
"                                                                ",
"                                                                ",
"                                                                ",
"                                                                ",
"                                                                ",
"                                                                ",
"                                                                ",
"                                                                ",
"                                                                ",
"                                                                ",
"                                                                ",
"                        ................                        ",
"                        ................                        ",
"                        ................                        ",
"                        ................                        ",
"                    ....oooooooo++++++++....                    ",
"                    ....oooooooo++++++++....                    ",
"                    ....oooooooo++++++++....                    ",
"                    ....oooooooo++++++++....                    ",
"                ....XXXXoooooooooooo++++++++....                ",
"                ....XXXXoooooooooooo++++++++....                ",
"                ....XXXXoooooooooooo++++++++....                ",
"                ....XXXXoooooooooooo++++++++....                ",
"            ....XXXXoooooooooooooooooooooooooooo....            ",
"            ....XXXXoooooooooooooooooooooooooooo....            ",
"            ....XXXXoooooooooooooooooooooooooooo....            ",
"            ....XXXXoooooooooooooooooooooooooooo....            ",
"            ....XXXXooooooooOOOOooooooooooooooooOOOO....        ",
"            ....XXXXooooooooOOOOooooooooooooooooOOOO....        ",
"            ....XXXXooooooooOOOOooooooooooooooooOOOO....        ",
"            ....XXXXooooooooOOOOooooooooooooooooOOOO....        ",
"        ....XXXXoooooooooooooooooooooooooooooooooooo....        ",
"        ....XXXXoooooooooooooooooooooooooooooooooooo....        ",
"        ....XXXXoooooooooooooooooooooooooooooooooooo....        ",
"        ....XXXXoooooooooooooooooooooooooooooooooooo....        ",
"        ....XXXXoooooooooooooooooooooooo....oooooooo....        ",
"        ....XXXXoooooooooooooooooooooooo....oooooooo....        ",
"        ....XXXXoooooooooooooooooooooooo....oooooooo....        ",
"        ....XXXXoooooooooooooooooooooooo....oooooooo....        ",
"        ....XXXXoooooooooooooooooooooooo....oooooooo....        ",
"        ....XXXXoooooooooooooooooooooooo....oooooooo....        ",
"        ....XXXXoooooooooooooooooooooooo....oooooooo....        ",
"        ....XXXXoooooooooooooooooooooooo....oooooooo....        ",
"        ....XXXXXXXXoooooooooooooooooooo....oooooooo....        ",
"        ....XXXXXXXXoooooooooooooooooooo....oooooooo....        ",
"        ....XXXXXXXXoooooooooooooooooooo....oooooooo....        ",
"        ....XXXXXXXXoooooooooooooooooooo....oooooooo....        ",
"        ....XXXXXXXXXXXXooooooooooooooooooooooooXXXX....        ",
"        ....XXXXXXXXXXXXooooooooooooooooooooooooXXXX....        ",
"        ....XXXXXXXXXXXXooooooooooooooooooooooooXXXX....        ",
"        ....XXXXXXXXXXXXooooooooooooooooooooooooXXXX....        ",
"        ........XXXXXXXXXXXXXXXXXXXXXXXXXXXXXXXX........        ",
"        ........XXXXXXXXXXXXXXXXXXXXXXXXXXXXXXXX........        ",
"        ........XXXXXXXXXXXXXXXXXXXXXXXXXXXXXXXX........        ",
"        ........XXXXXXXXXXXXXXXXXXXXXXXXXXXXXXXX........        ",
"            ........................................            ",
"            ........................................            ",
"            ........................................            ",
"            ........................................            ",
"                                                                ",
"                                                                ",
"                                                                ",
"                                                                "
};
