/* XPM */
static char *_0b26463ed0c499cb320b76e362800120GyvR7JtvqxAdg0M[] = {
/* columns rows colors chars-per-pixel */
"64 64 6 1 ",
"O c #0",,
". c #1D2B53",
"X c #7E2553",
"o c #FF004D",
"O c #FFEC27",
"+ c #FF77A8",
/* pixels */
"                                                                ",
"                                                                ",
"                                                                ",
"                                                                ",
"                                                                ",
"                                                                ",
"                                                                ",
"                                                                ",
"                            ............                        ",
"                            ............                        ",
"                            ............                        ",
"                            ............                        ",
"                        ....oooooooo++++....                    ",
"                        ....oooooooo++++....                    ",
"                        ....oooooooo++++....                    ",
"                        ....oooooooo++++....                    ",
"                    ....XXXXoooooooo++++++++....                ",
"                    ....XXXXoooooooo++++++++....                ",
"                    ....XXXXoooooooo++++++++....                ",
"                    ....XXXXoooooooo++++++++....                ",
"                ....XXXXoooooooooooooooooooo....                ",
"                ....XXXXoooooooooooooooooooo....                ",
"                ....XXXXoooooooooooooooooooo....                ",
"                ....XXXXoooooooooooooooooooo....                ",
"                ....XXXXooooooooOOOOooooooooOOOO....            ",
"                ....XXXXooooooooOOOOooooooooOOOO....            ",
"                ....XXXXooooooooOOOOooooooooOOOO....            ",
"                ....XXXXooooooooOOOOooooooooOOOO....            ",
"            ....XXXXoooooooooooooooooooooooooooo....            ",
"            ....XXXXoooooooooooooooooooooooooooo....            ",
"            ....XXXXoooooooooooooooooooooooooooo....            ",
"            ....XXXXoooooooooooooooooooooooooooo....            ",
"            ....XXXXoooooooooooooooooooo....oooo....            ",
"            ....XXXXoooooooooooooooooooo....oooo....            ",
"            ....XXXXoooooooooooooooooooo....oooo....            ",
"            ....XXXXoooooooooooooooooooo....oooo....            ",
"            ....XXXXoooooooooooooooooooo....oooo....            ",
"            ....XXXXoooooooooooooooooooo....oooo....            ",
"            ....XXXXoooooooooooooooooooo....oooo....            ",
"            ....XXXXoooooooooooooooooooo....oooo....            ",
"            ....XXXXoooooooooooooooooooo....oooo....            ",
"            ....XXXXoooooooooooooooooooo....oooo....            ",
"            ....XXXXoooooooooooooooooooo....oooo....            ",
"            ....XXXXoooooooooooooooooooo....oooo....            ",
"            ....XXXXoooooooooooooooooooo....oooo....            ",
"            ....XXXXoooooooooooooooooooo....oooo....            ",
"            ....XXXXoooooooooooooooooooo....oooo....            ",
"            ....XXXXoooooooooooooooooooo....oooo....            ",
"            ....XXXXXXXXoooooooooooooooooooooooo....            ",
"            ....XXXXXXXXoooooooooooooooooooooooo....            ",
"            ....XXXXXXXXoooooooooooooooooooooooo....            ",
"            ....XXXXXXXXoooooooooooooooooooooooo....            ",
"            ....XXXXXXXXXXXXooooooooooooooooXXXX....            ",
"            ....XXXXXXXXXXXXooooooooooooooooXXXX....            ",
"            ....XXXXXXXXXXXXooooooooooooooooXXXX....            ",
"            ....XXXXXXXXXXXXooooooooooooooooXXXX....            ",
"            ........XXXXXXXXXXXXXXXXXXXXXXXX........            ",
"            ........XXXXXXXXXXXXXXXXXXXXXXXX........            ",
"            ........XXXXXXXXXXXXXXXXXXXXXXXX........            ",
"            ........XXXXXXXXXXXXXXXXXXXXXXXX........            ",
"                ................................                ",
"                ................................                ",
"                ................................                ",
"                ................................                "
};
