/* XPM */
static char *_417ccc6be9f4931f080ab50d8ab73616YeP4ZE7VYDWjl1D[] = {
/* columns rows colors chars-per-pixel */
"64 64 100 2 ",
"   c #444533",
".  c #494634",
"X  c #464C34",
"o  c #4A4934",
"O  c #495034",
"+  c #475833",
"@  c #4C5D35",
"#  c #4B6434",
"$  c #4D6C34",
"%  c #5A6D37",
"&  c #5A6438",
"*  c #4F7D34",
"=  c #517535",
"-  c #507E35",
";  c #647739",
":  c #4E8534",
">  c #528A34",
",  c #569235",
"<  c #569D35",
"1  c #53A534",
"2  c #59A435",
"3  c #55AC34",
"4  c #5BAB36",
"5  c #56B534",
"6  c #5CB135",
"7  c #55BF34",
"8  c #5ABD34",
"9  c #63AC37",
"0  c #6BAE39",
"q  c #61BD36",
"w  c #67B438",
"e  c #6DBC39",
"r  c #73B23B",
"t  c #72BC3A",
"y  c #7BBB3C",
"u  c #57C034",
"i  c #5AC135",
"p  c #5DC238",
"a  c #64C537",
"s  c #68C637",
"d  c #64C937",
"f  c #62C438",
"g  c #6AC738",
"h  c #6DC939",
"j  c #7EC73C",
"k  c #74CB3A",
"l  c #7BCE3B",
"z  c #7DD13C",
"x  c #7CCD63",
"c  c #84B53E",
"v  c #83BA3E",
"b  c #8ABA3F",
"n  c #8BC33F",
"m  c #81CF3D",
"M  c #8ACC3F",
"N  c #84D13D",
"B  c #85D33D",
"V  c #85D13E",
"C  c #88D33E",
"Z  c #89D33F",
"A  c #8CD33F",
"S  c #8BD43F",
"D  c #8ED53F",
"F  c #8ABA40",
"G  c #8BBA40",
"H  c #8DC140",
"J  c #8FC440",
"K  c #8CCA40",
"L  c #8DCE40",
"P  c #93CC41",
"I  c #82D040",
"U  c #8ED440",
"Y  c #8FD540",
"T  c #8ED844",
"R  c #91D540",
"E  c #91D640",
"W  c #92D740",
"Q  c #96D741",
"!  c #99D742",
"~  c #96D841",
"^  c #97DC41",
"/  c #9BDA42",
"(  c #9BDB43",
")  c #9CD942",
"_  c #9CDB43",
"`  c #99DD41",
"'  c #9DDE42",
"]  c #98D94E",
"[  c #81CF5E",
"{  c #85D156",
"}  c #A0DC43",
"|  c #A4DD52",
" . c #A8DF5B",
".. c #81CF64",
"X. c #9CDA6A",
"o. c #AADF63",
"O. c #A6DE6C",
"+. c #ADE163",
"@. c #B2E36E",
"#. c #B4E370",
/* pixels */
"/ / / / ) ) ) ) ) ) ) ) ) ) ) ) ) ) ) ) ) ) ) ' ' ' ) ) ) ) ) ) ) ) ) ) ) ) ' ) ) ) / / k 7 l ) / / / / / ) / ) ) ) ) ) / / / / ",
"P ! / / / / ) ) ) ) ) ) ) / / / / / ) ) ) ) ) ' ' ' ) ) ) ) ' ) ) ) ) ) / / / / / / / / k 7 l ) / / / ~ ~ / / / / ) / / / / ! P ",
"& H ' ) ) / / / ' ' ' / / / ) ) ) / / / ) ) ) ) ' ) ) ) ) ) ) ' ' ) / / ) ) ) ) ) ) ) / k 7 l ) / ) N a l / / ) ) / / / / ' H & ",
". b ' ~ ~ / / / ' ' ' / / / ~ ~ ~ / ) / ) ) ) ) ' ) ) ) ) ) ' ' ) ' / / ~ ~ ~ ~ ~ ~ ~ ~ k i l ~ ~ ~ l i k ) / ~ / / / / / ` c . ",
"o b ` h s D ) / ) ) ) / / l s s a l ) / / / ) / / / / / ) ) ) ) ) ) / ~ k a s s s s s s l E k s s s l Y Q / S s k / / / E h 4 . ",
"o b ` s i S ) / ) ) ) / / l i i u k ) / / / / / / / / / ) ) ) ) ) ) / ~ s i i i i i i i N ' k i i i l / / / Z i k ~ / / D a 1 o ",
"2 L / D S ~ / / ) ) / / / E D k i i g g s l / D s k / ) ' ' ) ) ) ) / / D S S S S S S S Q ) E S S S E / / ) ~ S E / / / / D M c ",
"i A / / / / / ) / ) / / / ) } l i i i i 7 k / Z i g ~ ) ' ) ) ) / ) / / ) ) ) ) ) ) ) ) ) / ) ) ) ) ) / / / ) ) ) / / / ) ) ) / ",
"$ w h h k E ) / / ) ) / ) / ) Y N N N N N D / ~ N S / / ) ) ) ) ) ) / ' / / / / / / / / / ) / / / / / ) / ) / / / ) / / / ' J ; ",
"  1 u 7 i Z ) / / ) ) ) ) / / ) ) ) ) ) ) ) / / ) ) / / ) ) ) ) ) ) ) ) ' ' ) ) ) ) ) ) ' ) ) ) ) ) / / ) ) ) ) ) ) ' ) / ' b . ",
"  1 i i i g k D ) / ) ) ) ) ) / / / / / / / ) / / / ) / ' ) ) ) ) ) ) ) ' ) ) ) ) ) ) ) ) ' ) ) ' ) ) ) / ) / / / ) / / / ' b o ",
"  1 i 7 i u i N ) / ) ) ) ) ) ' ' ' ) ) ) ) ) ) ) ) ) ) ' ) ) ) ) ) ) ) ' ' ) ) ) ) ) ' ' ' ) ) ) ) ) ) ) / / ) / / / ) / ' b . ",
"  1 p l N N N E ) / ) ) ) ) ' ' ) ) ) / / / / / / / / / ' / ' / / / / / / / / / / / / / / ) / ) ) ) ) ' / / Y k N / E k l / K , ",
"  1 p E ' ) ) ) / ' ) ) ) ) ' ' ) ) ) ) / / / / / / / / / / ' ' / / / / / / / / / / / / / / / ) ) ) ) ) / ) N 7 h / S i a ~ D p ",
": 5 p D / / / / / ' ' ) ) ) ) ' ) ) ) / ) Y l l l k k N / / ) / / / l l E / N l l l l l Y ) / ' ) ' / ' / / N i a k l l l l e * ",
"i u i D / ) ) ) ) ' ) ) ) ) ' ' ) ) ) / ' N 7 7 7 7 7 s ~ / ) / ) ~ f i Y / s 7 7 7 7 7 N ' / ' ' ' / / ) ) Z i i 7 g ) E p 1   ",
"- t z Q / / / / / / ' / ) ) ) ) ' ' ' / ) E l l l l l N / / ) / / / N l l l l l l l l l E ) / ) ) ) / ) D k h i i i f k k p 1   ",
"o F ' / / / / / ) ) / ' ) ) ) ) ' ' ) ' / / / / / / / / / ) ) ) / / / ~ s i S / / / / / / / ) ) ) ) / ) m u i u u u u i 8 u 1   ",
". r N Q / / / N l E / / / / / / ) / ) / / / / / / / / / ) / ) / / / / / l k E ) / / / / ) ) / ) ) ' / ) D k k k k k k k k k 0 . ",
"  1 i Y ) / ~ h 7 N / / ) ) ) ) / ) ) ) ) ) ' ' ) ) ) ) ) ) ) ) ' ' / / ) ) ) / ) ) ) ) ) ) ) ) ' ' ) / ) ) ) ) ) ) ) ) ) } b . ",
"  0 k l N N N s i N / D N N N Y / / ) / ) ) ' ' ' ' ) ) ) ' ' ' ) ) / / / / / / ) ) ' ' / ' / / / / / ) / / / / / / / / / ' b o ",
". b ^ s i i i u i Z ' k 7 i u l ) ) / / ) ) ' ) ' ' ' ) ) ' ' ' ) ) ) ) ) ) ) ) ) ) ) ' / / ) ) ) / / ) ) ) ) ) ) ) ) ) / ' b . ",
"= n / a i i i i i k N g u i u h N D ) / ) ) ' ) ) ) ) ) ) ) ) ) ) ) ) ) ) ' ) ) ) ) ) ' / ) D N Y ) / / / / / / / / ) / / ' n = ",
"i Y ~ s i i i i u i i i i i u i i k ) / ) ) ) ) ) ) ) ) ) ) ) ) ) ) ) ' ' ' ) ) ) ) ' ' / ) k i l ' ) ) ) ) ) / / ' ) ) / ) Y i ",
"< j N f i i i s h h h h h h h h g N ) / ' ' ' ' ) ) ) ) ' ) ) ) ) ) ) ) ) ) ) ) ) ) ) ) / ) z g l S Z Z Z Z D / / / / / ~ S j < ",
"  1 u 7 i i i N ) / ` ` / / / / ` / / ) ) ) ' ' ) ) ) ) ) ) ) ) ) ) ) ) ' ' ) ' ) ) ) ) ) / / / l 7 i u u u h / / / / ) E p 1   ",
". 9 h s g g g Z ) / / / / / / / / / ) / ) ) ) ) / / / / / / / / / / / / / / / ' / / / / / / / / N s g s s g l / / ) ~ D N p 1   ",
". c ` Q ~ ~ ~ / / ) ) ) ) ) ) ) ) ' ) ) ) ) ) ) / ) ) ) ) ' ' ' ) ) ) ) ) / / / ) ' ) / ) ) ) / / ~ ~ ~ ~ ~ / / / ) D i i i 1   ",
"# n ' ) / ) ) / / / ) ) ) ) ) ' ) ) ) ) ) ) ) / / ~ D D D D D D D D D Y / ) / / E D ~ ) E D ~ / / ) ) ) ) ) ) / / ) D s s i 1   ",
"8 Y ) / / / / / / / ) ) ) ) ) ' ) ) ) ) ) / ) / ) S a i i i i i i i i a D ) / ) h i N ' k i N ) / ' ' ) ) ) ) ) ) / / ~ Z p 1   ",
"4 M E E E E E ~ / / ) ) ) ) ' ' ' ) ) ) ) ) / / E N i i i i i i a a a s N E E E k s N ) l f N ) / ) ) ) ) ) ) ) / / / / E h 4 + ",
"X 4 p i i i f N ) / / / ) ) ' ' ' ) ) ) ) / ) S i i i i i i u a D ~ ~ E g i i i N ~ / / / ~ / / / ) ' ' ) ) ) ) ) ) ) / / / Z 8 ",
"  1 i 7 u u i l E / / / ) ) ) ) ) ) ) ) ' / ) D a a a a a a a g Q ) ) / h i a a D ) / / ) ) ) / / / / ' ) ) ' ) ' ' ' / / ) Y 6 ",
"  1 i 8 i i u i a Z / / ) ) ) ) ) ) ' ' ' / / / E E E E E E E E / / / / E E E E / / / / ) ) ) ) ) / / ) ) ) ) ) ' ' ' / / ' b @ ",
"  1 i 8 i i i i i Z / / ) ) ) ) ) ) ) ) ) / / / ) ) ) ) ' ' ' ) ) / / / / ' ' ) / / / / / ~ ~ ~ / / / ) ) ) ) ) ) ) ) ) / ' b . ",
"  1 i i i N E E E / / / / / / / ) / ) / / / / / / / / / / ` ` ` ) ) ) ) / ` ` / / ) / / l a a a l ) / ) ) ) ) ) / / / / / ' b . ",
"  1 i i i N / / / / / / ~ ~ ~ / / ) / / ~ ~ ~ ~ ~ / / / ) / ) ' ) ) ' ' ' ' ) ) ) ) / / k i i i l ) / ) ) ) ) ) / / / ~ ~ ` b . ",
"  1 i 8 i a s Z ) / ) l a s a N / / ) N s s s s s k ~ ) ) ) ) ) ) ) ) ' ) ) ) ) ) ) / / E D D D E ) / / / ) ) ) / ) D s s s 4   ",
"X 1 i i i i i N ) / / k i i i l / / ) N i i i i i h ~ ) ) ) ) ) ) ) ) ' ) ) ) ) ) ) / / ) ) ) ) ) / / / / ~ ~ ~ ~ / N i 7 u 1 O ",
"1 8 i i i l D ~ ) / / E Z S Z E / / / Q S S S S Z Y / ) ) ) ) ) ) ) ' ' ) ) ) ) ) ) / / / / / / / / / ) N g g g g g s i i u q c ",
"i i i i i S ) / / / / ) ) ' ' / / / / ) ) ) ' ' ) ) / / ' ' ) ) ) ' ) ) ) ) / / ) ) ' ) ) ) ) ) ) ) / ) m u i u u u u i i 7 s ~ ",
"# 3 p m Z ~ / / ) ) ) / / ` ` ` ) ) ) / / / ` ` ` / ) ) ) ' ' ) ) ' ) ) ) / / ) ) ) ' ' / / / / / / / ) Q Z Z Z Z Z Z Z m p 4 % ",
"  1 p D / / / ) ) ) ) ) ) ) ' ) ) ) ) ) ) ) ) ) ' ' ) ) ) ) ) ) ) ) ' ) ) ) ) ) ) ' ' ' ) / / / / / ) / / ) ) ) ) ) ) ) E a 1   ",
"  1 i h k E ) / / / ) ) ) ) ) / / / / / / / ) ) ' ' ) ) ) ) ) ) ) ) / / / / / / / / / / / ) N k N ) / / / / / / / / / / Q Z r . ",
"  1 i 7 i Z ) / / ) ) ) ) ) ) / / / / / / / ) ) ) ) ) ) ) ) ) ) ) ' / / / / / / / / / / / ) k 7 k ) / / / ) ) ) ) ) ) / / } b o ",
"o r N m N k k D ) / ) ) ) / / / / Z k N / / / / / / / / ) ) ) ) ) ) / / l k k k k k k k k k s i s k N / / ) / ) ) ) ) / / / M , ",
". b } ) ) s u N ) / ) ) ) ' / ' ' l 7 k ) ' ) ) ) ) / / ' ) ' ' ) ' / ~ a 7 7 7 u i u u i i i i u 7 l ) ) / / ) ) ) ) / / ' E d ",
"> e k k k l z E ) / ) ) ) / ' Z k l l l k k k k k l / / ' ' ' ' ) ' / / N l l l a i u u u i i i h z l k N ) / ' / / / / Q l e * ",
"i i u i i S ) / / ' ' ' ' / ) k u k ' N i u i i u s ~ ) ) ) ' ' ) ) ' / ) ) ) ' h u i i i i i i k } l 7 k ) / ) ) / / / D p 1   ",
"> e l l l E ) / / / ' ' ) / ) Z k N ) D l k k k k N / ) ) ) ) ) ) ) / ) / / / / N k k k k k k k N ) S k N ) / ) / ) E l k p 1   ",
". b } ) ) ) / / ) ) ) ) ) / / ) ) ) / ) ) ' ' ' ' ) / / ) ) ) ) ) ) ) ) ) ) / / ) ) ' ' ' ' ' ) ) / ) ) ) / / ) / ) S u 7 u 1   ",
"o b ' / / / ) / ) ) ) ) ) / / / / / ) / / / / / / / / / ) ) ) ) ) ) ) ) ) ) / ) / / / / / / / / / / / / / ) / ) / ) E l l z 0 . ",
". b } / / ) ) ) ' ) ) ) ) ) ' ' ) ) ) ) ) ) ) ) ) ) ) ) ) ) ) ) ' ' ) ) ) ) ) ) ' ' ' ) ) ) / / ) ) ) / / ) ) ) ) / / / / ' b . ",
". r Z Q / / / / / / ) / ) ) ' ' ) ) ) / / / / / ) / / / ) ) / / / / / / / / / / / ' / ) ) ) / / Y l D / / / / / / / / / / ' b . ",
"  1 p Y / / ) ) ) / / ) ) ) ' ' ) ) ) ) / / / / / / / / / / / ) ) ) ) ) ) ) ) ) / / ) ) ) ) / / l 7 l / ) / / / / / ) / / ' F . ",
". 9 k N N N N N N ~ / / ) ) ' / ) / / / ) ~ N D / ~ Z S / / Z N N N N N N N N N ~ / / ) ) ) / / N h l N N N D / / ) ~ Z N S y $ ",
". b ^ a 7 u u u u N ) / ) ) ) / / ) ' ) } N i h ' D i s / E i u i i i i i i i i S ) ) / / ) / / / ) l i u 7 g / / ) S i u 7 u i ",
". b ` k h h h h h D / / ) ) ) / ) E N N N k i s N l i a N l i i i i i i i i i i l N E ) / ) / / / ) N h h h l / / ) E k h h e < ",
". b ' / / / / / / / / / ) ) ) / ) l u i i i 7 u i i 7 u i i 7 7 7 7 7 7 7 7 7 7 i i N ) / ) ) ) / / / / / / / / / / / / / ` b o ",
". b ' / / / / / / / ) / ) ) ) / ) N s h g g g g g g g g g g g g g g g g g g g g g g Z ) / ) ) ) / / / / / / / / / / / / / ' b . ",
". b ' / / / ) ) ) / ) / / / / / / / / / / / / / / / / / / / / / / / / / / / / / / / / / / / / ) / ) ) ) ' ' ) ) / / / / / ' b . ",
"@ v E / / ) ) ) ) / / Q Y ~ / / ) / / / / / / / / / / / / / / / / / / / / / / / / / / / Q E ~ ) ) ) ) ) ' ' ) ) ) ) / E E ' b . ",
"5 8 a E ) ) ) ) ) ) ) l i m ) ) / / ) ) ) ) ) ) / ) ) ) ) ) / / / ) ) ) ) ) ) ) / / ) ) l p I ) ) ) ) ) ) ' ' / ) ) Y f g ` F . ",
"i u i N E o.#.@.@.] Y h 7 k D Q / / ) | @.@.@.+.) / Y Y Y E / / / ) @.@.@.@.| ) ) / E Y { x X.@. .) ) ) ' ' ) ) | @.O...[ T v @ "
};
